<svg xmlns="http://www.w3.org/2000/svg" viewBox="0 0 139.85 139.87"><defs><style>.cls-1{fill:#ff9666;}.cls-2{fill:#002856;}.cls-3,.cls-6{fill:none;stroke:#002856;stroke-miterlimit:3.86;}.cls-3{stroke-width:0.3px;}.cls-4,.cls-8{fill:#fff;}.cls-4,.cls-5{fill-rule:evenodd;}.cls-5,.cls-7{fill:#ff5100;}</style></defs><title>Asset 1</title><g id="Layer_2" data-name="Layer 2"><g id="Foreground"><path class="cls-1" d="M138.94,69.93a69,69,0,1,1-69-69A69,69,0,0,1,138.94,69.93Z"/><path class="cls-2" d="M138.83,73.84l.27-.25a2.11,2.11,0,0,0,.6-1.5,3.43,3.43,0,0,0-.75-2.17h0l.23-.24a2.85,2.85,0,0,0-.35-3.65l.22-.26a2.83,2.83,0,0,0-.56-3.63l.2-.27a2.21,2.21,0,0,0,.38-1.61,2.29,2.29,0,0,0-.11-.49h0s0,0,0,0l0-.07a3,3,0,0,0-.18-.41l-.09-.14a3.29,3.29,0,0,0-.23-.33l-.1-.12a3,3,0,0,0-.4-.39l-1.18.2c-.29.44-.6.87-.91,1.3h0c-.45.63-.92,1.24-1.4,1.85l-.31.39c-.45.57-.91,1.13-1.36,1.68a1.69,1.69,0,0,1-.5-2.12c.48-.59.95-1.19,1.4-1.8h0l.64-.89c.82-1.17,1.68-2.41,2.42-3.67a1.84,1.84,0,0,1,.69,2.25l-.67,1,1.21-.21.18-.28a2.78,2.78,0,0,0-.95-3.54l.17-.3a2.77,2.77,0,0,0-1.15-3.48l.16-.31a2.06,2.06,0,0,0,.1-1.64A3.51,3.51,0,0,0,135,46.93l-1.15.41a55.25,55.25,0,0,1-3.05,5.82,1.67,1.67,0,0,1-.82-2c.52-1,1-2,1.53-3,.66-1.32,1.2-2.65,1.77-4a1.91,1.91,0,0,1,1.08,2.09l-.51,1.12,1.16-.41.14-.31c.51-1.1-.26-2.62-1.54-3.33l.13-.32A2.88,2.88,0,0,0,132,39.73l.11-.32a2.23,2.23,0,0,0-.2-1.64,3.18,3.18,0,0,0-1.73-1.5h0l.08-.32a1.43,1.43,0,0,0,0-.22.48.48,0,0,0,0-.12.67.67,0,0,0,0-.2,1.64,1.64,0,0,0,0-.23c0-.07,0-.14,0-.21a1.55,1.55,0,0,0-.08-.23,1.19,1.19,0,0,0-.08-.2L130,34.3l-.11-.18-.18-.22-.14-.16-.23-.21-.16-.13a3,3,0,0,0-.3-.19l-.15-.08a3.75,3.75,0,0,0-.5-.21l.07-.34a2.8,2.8,0,0,0-2.26-2.9l.05-.33a2,2,0,0,0-.45-1.58,3.4,3.4,0,0,0-2-1.19l-.94.76a59.65,59.65,0,0,1-.94,6.51c-.91-.24-1.56-1-1.44-1.62.17-1.08.32-2.19.44-3.33l-.95.77L119.62,31a2.3,2.3,0,0,1-.94-.41l-.24.2h0l.23-.2,0,0a1.25,1.25,0,0,1-.55-1.08,66.07,66.07,0,0,0,.34-7.77c1,.14,1.79.84,1.79,1.53v.22c0,2.12-.18,4.21-.42,6.24l.95-.77c.18-1.46.25-2.9.33-4.4,1,.19,1.75.93,1.7,1.62l-.09,1.22.95-.77,0-.34c.1-1.2-1.12-2.38-2.56-2.63v-.34a2.86,2.86,0,0,0-2.72-2.47v-.33a2.24,2.24,0,0,0-.72-1.49,3.11,3.11,0,0,0-2.14-.83h0l0-.34a2.79,2.79,0,0,0-3-2.15l0-.34c-.16-1.2-1.6-2.1-3.09-2l-.07-.33a2,2,0,0,0-.95-1.34,3.44,3.44,0,0,0-2.25-.47v0l-.09-.32c-.3-1.15-1.83-1.89-3.28-1.63l-.12-.32a2.81,2.81,0,0,0-3.37-1.43l-.13-.32A2.16,2.16,0,0,0,98,6a3.13,3.13,0,0,0-2.3-.08h0l-.13-.31a2.8,2.8,0,0,0-3.53-1l-.15-.31c-.56-1.08-2.22-1.44-3.58-.84L88.1,3.1a2,2,0,0,0-1.35-.94,3.37,3.37,0,0,0-2.27.31h0l-.19-.28c-.67-1-2.36-1.16-3.64-.44l-.22-.27a2.87,2.87,0,0,0-3.66-.22L76.55,1a2.19,2.19,0,0,0-1.5-.69A3.2,3.2,0,0,0,72.87,1L72.82,2.2c1.53,1.63,3,3.3,4.27,5-.78.49-1.74.57-2.17,0-.71-.84-1.44-1.74-2.2-2.55l-.06,1.23.87,1a2.73,2.73,0,0,1-.93.44l-.06,0a1.2,1.2,0,0,1-1.18-.3,61,61,0,0,0-5.6-5.39,1.86,1.86,0,0,1,2.34-.33l.15.14a61.39,61.39,0,0,1,4.41,4.43l.06-1.22c-1-1.05-2-2.13-3.09-3.16A1.88,1.88,0,0,1,72,1.34l.85.86L72.87,1,72.63.75A2.79,2.79,0,0,0,69,.93L68.72.7a2.8,2.8,0,0,0-3.65.4L64.8.88A2.22,2.22,0,0,0,63.22.43a3.31,3.31,0,0,0-2,1.06l.13,1.06-.13-1.07-.27-.2a2.77,2.77,0,0,0-3.58.8L57,1.89c-1-.69-2.63-.17-3.53,1l-.31-.17a2,2,0,0,0-1.62-.17,3.46,3.46,0,0,0-1.84,1.37h0l-.3-.15A2.87,2.87,0,0,0,46,5.17L45.72,5a2.81,2.81,0,0,0-3.3,1.6l-.33-.12a2.15,2.15,0,0,0-1.64.12,3.14,3.14,0,0,0-1.57,1.67h0l-.32-.1a2.78,2.78,0,0,0-3.1,2l-.34-.08c-1.18-.3-2.54.71-3,2.13l-.34-.06a2,2,0,0,0-1.59.39,3.42,3.42,0,0,0-1.28,1.9h0l-.33,0a2.85,2.85,0,0,0-2.73,2.45H25.5a2.82,2.82,0,0,0-2.59,2.6h-.34a2.21,2.21,0,0,0-1.51.65,3.19,3.19,0,0,0-.92,2.11h-.35a2.78,2.78,0,0,0-2.27,2.88l-.35,0c-1.22.11-2.14,1.53-2.11,3l-.35.05a2,2,0,0,0-1.36.9,3.37,3.37,0,0,0-.58,2.21l1,.69a60.59,60.59,0,0,1,6.52-1,1.72,1.72,0,0,1-1.13,1.86c-1.09.15-2.21.33-3.33.53-1.42.28-2.84.61-4.3,1a1.93,1.93,0,0,1,1.06-2.1L13.77,32l-1-.69-.33.08a2.82,2.82,0,0,0-1.75,3.22l-.33.09a1.71,1.71,0,0,0-.39.17l-.12.09-.23.17a.74.74,0,0,0-.12.13,1.8,1.8,0,0,0-.19.2l-.1.16-.1.14h0l0,.1c0,.08-.07.16-.11.25l-.09.23c0,.1,0,.2-.08.31s0,.15,0,.22a2.3,2.3,0,0,0,0,.37c0,.07,0,.13,0,.2a4,4,0,0,0,.07.58l-.32.11A2.26,2.26,0,0,0,7.23,39.2a3.33,3.33,0,0,0-.16,2.3l1.11.5a62.17,62.17,0,0,1,6.21-2.1,1.66,1.66,0,0,1-.78,2c-1.08.32-2.12.7-3.17,1.09l1.11.51,1.23-.44a2.45,2.45,0,0,1,.08,1h0v.06a1.24,1.24,0,0,1-.73,1A63.36,63.36,0,0,0,5,48.35c-.31-.92-.1-2,.55-2.29l.2-.1a62.1,62.1,0,0,1,5.77-2.43L10.44,43c-1.38.51-2.74,1.07-4.08,1.69-.28-1,0-2,.68-2.25L8.18,42l-1.13-.51-.31.13c-1.13.44-1.66,2.05-1.19,3.47l-.31.14c-1.12.51-1.51,2.16-1,3.55l-.31.15a2.08,2.08,0,0,0-1,1.32,3.36,3.36,0,0,0,.21,2.28h0l-.29.18a2.84,2.84,0,0,0-.57,3.62l-.28.2a2.09,2.09,0,0,0-.31.29l-.08.12a1.43,1.43,0,0,0-.16.24l-.07.16a1.86,1.86,0,0,0-.1.25,1.33,1.33,0,0,0-.05.19L1.17,58c0,.07,0,.14,0,.21a2.44,2.44,0,0,0,0,.27c0,.08,0,.15,0,.22a2.89,2.89,0,0,0,0,.29,1.42,1.42,0,0,0,0,.2c0,.11.06.21.1.32l.06.17a.07.07,0,0,1,0,.05h0a3.3,3.3,0,0,0,.23.41l-.27.22A2.19,2.19,0,0,0,.6,61.85a3.16,3.16,0,0,0,.6,2.22l1.21.1a62.18,62.18,0,0,1,5.15-4.05,1.66,1.66,0,0,1,0,2.16c-.91.68-1.79,1.37-2.63,2.11l1.22.1,1-.83a2.36,2.36,0,0,1,.42,1h0v.06a1.21,1.21,0,0,1-.36,1.16A61.47,61.47,0,0,0,1.58,71.2a1.83,1.83,0,0,1-.25-2.34l.16-.15a55.35,55.35,0,0,1,4.62-4.22l-1.23-.1c-1.09.93-2.23,1.91-3.27,3A1.85,1.85,0,0,1,1.51,65l.9-.81-1.22-.1-.26.22A2.8,2.8,0,0,0,1,68l-.24.25A2.75,2.75,0,0,0,1,71.86l-.23.26a2.12,2.12,0,0,0-.52,1.56,3.49,3.49,0,0,0,1,2.09h0L1,76c-.78.94-.42,2.6.65,3.61l-.2.28c-.72,1-.27,2.63.86,3.58l-.19.29a2.08,2.08,0,0,0-.22,1.62,3.34,3.34,0,0,0,1.28,1.9h0L3,87.6a2.86,2.86,0,0,0,1.26,3.46l-.15.3a2.35,2.35,0,0,0-.14.45v0H4a2.6,2.6,0,0,0,0,.4s0,0,0,.08a2.23,2.23,0,0,0,0,.36s0,.11,0,.16l.09.28a.89.89,0,0,0,.08.17,2.1,2.1,0,0,0,.13.26.91.91,0,0,0,.11.16,2.27,2.27,0,0,0,.18.25l.12.15.26.24.12.1a2.23,2.23,0,0,0,.44.29l-.13.32a2.24,2.24,0,0,0,0,1.65,3.31,3.31,0,0,0,1.62,1.64h0l-.1.31c-.42,1.15.45,2.61,1.81,3.19l-.1.34c-.35,1.17.63,2.55,2,3.08l-.08.33a2,2,0,0,0,.33,1.6,3.35,3.35,0,0,0,1.85,1.36l1-.67a64,64,0,0,1,1.49-6.42c.88.33,1.46,1.08,1.31,1.73-.26,1.07-.52,2.17-.74,3.29-.26,1.41-.49,2.87-.69,4.36-1-.27-1.66-1.08-1.56-1.77l.19-1.19-1,.69-.06.32a2.84,2.84,0,0,0,2.35,2.83l0,.34a2.8,2.8,0,0,0,2.49,2.69v.34a2.12,2.12,0,0,0,.58,1.54,3.29,3.29,0,0,0,2.07,1V118c0,1.22,1.3,2.29,2.77,2.4l0,.34C23,122,24.36,123,25.83,123l0,.34a1.71,1.71,0,0,0,.14.49s0,.05,0,.06h0l0,.07a2.61,2.61,0,0,0,.17.28l.1.13a2.53,2.53,0,0,0,.37.36,3.29,3.29,0,0,0,2.19.67h0l.06.33a2.82,2.82,0,0,0,3.15,1.89l.07.33a2.79,2.79,0,0,0,3.26,1.71l.09.33a2.24,2.24,0,0,0,1,1.27,3.39,3.39,0,0,0,2.3.26l.23-.45-.24.47.11.31c.39,1.16,2,1.73,3.42,1.35l.13.31c.47,1.12,2.09,1.6,3.49,1.15l.15.31a2.18,2.18,0,0,0,1.27,1,3.3,3.3,0,0,0,2.29-.1l.36-1.16a63,63,0,0,1-2.87-5.92,1.72,1.72,0,0,1,2.1.52c.47,1,1,2,1.5,3,.68,1.26,1.41,2.54,2.19,3.82a1.91,1.91,0,0,1-2.32-.4l-.6-1.05-.36,1.17.16.29a2.83,2.83,0,0,0,3.6.74l.18.28a2.81,2.81,0,0,0,3.64.53l.21.28a2.13,2.13,0,0,0,1.42.83,3.28,3.28,0,0,0,2.24-.52l0-.32,0,.34.21.26a2.78,2.78,0,0,0,3.67.11l.23.26c.81.92,2.5.82,3.67-.1l.24.25a2,2,0,0,0,1.54.57,3.46,3.46,0,0,0,2.13-.87v0l.25.22c.9.8,2.58.52,3.63-.49l.28.21a2.86,2.86,0,0,0,3.6-.71l.28.2a2.17,2.17,0,0,0,1.62.29,3.2,3.2,0,0,0,1.94-1.21l-.24-1.18a65.51,65.51,0,0,1-5.4-3.78c.64-.67,1.55-1,2.1-.58.89.64,1.83,1.34,2.77,1.93,1.21.76,2.48,1.56,3.79,2.26a1.88,1.88,0,0,1-2.23.79l-1-.62.25,1.19.29.17a2.8,2.8,0,0,0,3.5-1.11l.29.16a2.78,2.78,0,0,0,3.44-1.3l.31.14a2.23,2.23,0,0,0,1.65.05A3.55,3.55,0,0,0,95.67,134h0l.32.13c1.13.47,2.6-.36,3.26-1.69l.32.11c1.15.39,2.59-.51,3.17-1.86l.34.09a2.15,2.15,0,0,0,1.61-.27,3.27,3.27,0,0,0,1.43-1.79h0l.33.06a2.79,2.79,0,0,0,2.92-2.21l.34,0a2.8,2.8,0,0,0,2.8-2.38l.33,0a2.54,2.54,0,0,0,.39,0l.11,0a2,2,0,0,0,.26-.06l.14,0a1.22,1.22,0,0,0,.24-.1l.12-.07.1,0h0l.2-.16a3.45,3.45,0,0,0,1.1-2h.34c1.23.07,2.34-1.21,2.52-2.66h.35c1.19,0,2.26-1.34,2.36-2.81l.34,0a2.19,2.19,0,0,0,1.44-.79,3.21,3.21,0,0,0,.75-2.16h0l.33,0a2.79,2.79,0,0,0,2-3.06l.34-.06a2.78,2.78,0,0,0,1.85-3.17l.34-.09a2.13,2.13,0,0,0,1.3-1,3.38,3.38,0,0,0,.36-2.27h0l.32-.1c1.17-.34,1.79-1.92,1.49-3.35l.33-.12a2.87,2.87,0,0,0,1.29-3.44l.31-.14A2.17,2.17,0,0,0,135,95.21a3.25,3.25,0,0,0,0-2.3h0l.29-.16a2.13,2.13,0,0,0,.45-.34l.11-.12a2,2,0,0,0,.26-.39.35.35,0,0,0,.05-.08h0v0a3.27,3.27,0,0,0,.2-.55s0-.08,0-.12a3.93,3.93,0,0,0,.06-.48v-.2a3.13,3.13,0,0,0,0-.44l0-.2a3.45,3.45,0,0,0-.2-.62l.3-.18a2.76,2.76,0,0,0,.68-3.6l.29-.19a2.2,2.2,0,0,0,.9-1.39,3.35,3.35,0,0,0-.44-2.26l-1.18-.2a60.13,60.13,0,0,1-5.49,3.6,1.67,1.67,0,0,1,.25-2.16c1-.58,1.85-1.21,2.8-1.86,1.2-.83,2.34-1.73,3.5-2.67a1.9,1.9,0,0,1-.07,2.36l-1,.73,1.21.2.27-.19c1-.72,1.06-2.42.27-3.67l.26-.22C139.7,76.73,139.68,75,138.83,73.84Zm-.33-.92a64.47,64.47,0,0,1-5.94,5,1.69,1.69,0,0,1,0-2.17,60.88,60.88,0,0,0,5.76-5.22A1.92,1.92,0,0,1,138.5,72.92Zm-6.25,2-.19.16,0-.4C132.14,74.78,132.19,74.86,132.25,74.94Zm0-3.37c0-.14,0-.27,0-.41.06.08.1.17.16.25ZM138.56,69l-.83.88a65.05,65.05,0,0,1-4.83,4.48,1.73,1.73,0,0,1-.12-2.17c.82-.74,1.65-1.51,2.47-2.31h0q1.5-1.53,3-3.21A1.91,1.91,0,0,1,138.56,69Zm-.17-3.88-.13.17c-1.33,1.62-2.83,3.15-4.24,4.59l-1,.91a2.18,2.18,0,0,1-.46-.91h0l0-.06a1.22,1.22,0,0,1,.25-1.19A64.66,64.66,0,0,0,138,62.85,1.9,1.9,0,0,1,138.39,65.16Zm-5.76,0c.7-.76,1.37-1.56,2-2.37l.3-.36c.6-.77,1.19-1.56,1.78-2.36.06-.09.13-.17.19-.25h0c.17-.26.35-.51.53-.77a3,3,0,0,1,.3.33l.07.11c.06.09.12.18.17.27a.54.54,0,0,0,.05.11,2.32,2.32,0,0,1,.17.75.28.28,0,0,1,0,.09,1.09,1.09,0,0,1,0,.26.29.29,0,0,0,0,.09,1.14,1.14,0,0,1-.15.29,60.7,60.7,0,0,1-5,6C132.41,66.56,132.17,65.62,132.63,65.11Zm-.22,2.76-.17.17c0-.13,0-.27,0-.4A2,2,0,0,0,132.41,67.87Zm-.21-3.53-.16.18,0-.4C132.07,64.19,132.13,64.27,132.2,64.34Zm4.42-10.68-.11.19h0a56.37,56.37,0,0,1-3.42,5.25l-.77,1a2.5,2.5,0,0,1-.36-.37,1.91,1.91,0,0,1-.28-.44l0,0a1.19,1.19,0,0,1,.06-1.22,56.79,56.79,0,0,0,4.08-6.61A1.84,1.84,0,0,1,136.62,53.66Zm-4.9,24.56.14.24-.19.15C131.69,78.48,131.71,78.35,131.72,78.22ZM131.64,61c0-.13,0-.26,0-.39l.21.19ZM131,54.59a62.75,62.75,0,0,0,3.69-6.84c.82.54,1.3,1.53,1,2.16a63.07,63.07,0,0,1-4,6.72A1.65,1.65,0,0,1,131,54.59Zm-.42,30.82-.21.11.09-.37C130.45,85.24,130.48,85.32,130.53,85.41Zm-.15-31.52-.13.21c0-.13-.07-.26-.11-.39A2.15,2.15,0,0,0,130.38,53.89Zm2.54-11.27-.08.2a59.59,59.59,0,0,1-2.48,5.75l-.59,1.17a2.28,2.28,0,0,1-.75-.69l-.3.1.29-.1,0,0a1.35,1.35,0,0,1-.16-1.21,63.47,63.47,0,0,0,2.92-7.21A1.94,1.94,0,0,1,132.92,42.62Zm-3.46,45.93a2.67,2.67,0,0,0,.09.26l-.21.1C129.37,88.79,129.42,88.67,129.46,88.55Zm-.21-37.83c0-.14-.09-.27-.13-.41.09.06.16.14.25.19ZM130,37.13c.91.39,1.5,1.3,1.29,2a58.72,58.72,0,0,1-2.73,7.3c-.81-.45-1.3-1.28-1.06-1.9A63.76,63.76,0,0,0,130,37.13ZM128.3,91.89a2.58,2.58,0,0,0,.08.26l-.22.08C128.21,92.12,128.26,92,128.3,91.89Zm-.23-44.49-.15-.38a2.07,2.07,0,0,0,.25.15Zm-.53-11.53s0-.1,0-.15h0c.16-.64.31-1.28.43-1.92a1.86,1.86,0,0,1,1.41,1.88l-.3,1.18a59.4,59.4,0,0,1-2,6.26c-.83-.41-1.41-1.19-1.17-1.83.36-1,.73-2.14,1-3.21h0C127.15,37.35,127.35,36.61,127.54,35.87ZM127,95.41l-.21.08.15-.35Zm-.23-51.49-.09.23-.17-.38C126.62,43.82,126.7,43.88,126.79,43.92Zm-1.46-10.29c0-.24.09-.49.14-.73.15-.77.28-1.55.4-2.33,1,.28,1.66,1.1,1.52,1.8l0,.22c-.19,1-.42,2.08-.66,3.1s-.52,2-.8,3h0l-.37,1.25a2.28,2.28,0,0,1-.87-.55l-.28.15h0l.27-.15,0,0a1.22,1.22,0,0,1-.35-1.16q.3-1.08.57-2.19c0-.09,0-.17.07-.26h0c0-.15.07-.31.1-.47Q125.17,34.44,125.33,33.63Zm.16,65-.22.06.17-.33A2.56,2.56,0,0,0,125.49,98.6Zm-.26-57.86-.08.23c-.07-.12-.13-.25-.19-.37C125.05,40.64,125.13,40.7,125.23,40.74Zm-2.88-5.59a64.92,64.92,0,0,0,1.2-7.67c1,.23,1.73,1,1.62,1.7-.13,1-.29,2-.46,3l-.09.51c-.18.95-.37,1.88-.58,2.8-.11.45-.21.9-.32,1.34a2.54,2.54,0,0,1-.41-.18l-.1,0-.29-.2,0,0a2.37,2.37,0,0,1-.27-.28l0-.07a1.23,1.23,0,0,1-.14-.25l0-.08a1.16,1.16,0,0,1,0-.18s0-.06,0-.09A.82.82,0,0,1,122.35,35.15Zm1.44,66.55-.24,0,.21-.35A1.53,1.53,0,0,0,123.79,101.7Zm-.29-64.05-.07.25c-.07-.11-.13-.23-.2-.35A1.25,1.25,0,0,0,123.5,37.65Zm-1.62,66.77c0,.09,0,.18,0,.27l-.22,0Zm-.3-69.74,0,.24-.23-.33A2.29,2.29,0,0,0,121.58,34.68Zm-1.74,72.64v.26l-.23,0Zm-.34-75.5,0,.25-.27-.34C119.3,31.76,119.39,31.8,119.5,31.82Zm-2-11.37a60.86,60.86,0,0,1-.16,7.78c-.91-.15-1.65-.76-1.62-1.43a61.45,61.45,0,0,0-.1-7.78A1.89,1.89,0,0,1,117.49,20.45Zm.17,89.6a2.4,2.4,0,0,0,0,.28l-.23,0Zm-.4-81,0,.24A3.88,3.88,0,0,1,117,29Zm-2.65-11.26.11,1.22.59-.67-.59.67a62.93,62.93,0,0,1,.18,6.56c-.93-.1-1.71-.64-1.71-1.34,0-1.11,0-2.24-.12-3.36-.09-1.44-.2-2.94-.41-4.39A1.86,1.86,0,0,1,114.61,17.83Zm.68,94.86a2.66,2.66,0,0,0,0,.28H115A3.45,3.45,0,0,0,115.29,112.69Zm-.42-86.22,0,.25-.28-.3ZM112.8,115.2a2,2,0,0,0,0,.26h-.22Zm-1.2-99.81,0,.21h0a55.52,55.52,0,0,1,.64,6.23l.06,1.3a2.57,2.57,0,0,1-1-.22l-.21.23h0l.2-.22,0,0a1.19,1.19,0,0,1-.72-1,59.3,59.3,0,0,0-1-7.71C110.55,14.15,111.5,14.67,111.6,15.39Zm.74,8.6v.25L112,24C112.14,24,112.24,24,112.34,24Zm-2.16,93.55a2.86,2.86,0,0,0-.07.28l-.22,0Zm-.48-95.63-.32-.26c.1,0,.2,0,.3,0Zm-1.25-8.8a66.1,66.1,0,0,1,1.16,7.7c-1,0-1.77-.46-1.84-1.14A63.73,63.73,0,0,0,106.35,12C107.33,11.94,108.31,12.42,108.45,13.11Zm-1,106.66a1.83,1.83,0,0,0-.06.25l-.23,0Zm-.49-100-.33-.24h.29ZM105.18,11l.31,1.18a62.76,62.76,0,0,1,1.27,6.45,1.69,1.69,0,0,1-1.9-1c-.2-1.08-.43-2.18-.68-3.29h0c-.32-1.43-.73-2.81-1.15-4.25A1.91,1.91,0,0,1,105.18,11Zm-.65,110.79-.09.25-.22,0ZM104,17.73l-.36-.23c.1,0,.2,0,.31,0Zm-2.24-8.6.07.2a59.71,59.71,0,0,1,1.68,6l.27,1.29a2.64,2.64,0,0,1-1-.07l-.16.26h0l.16-.26-.06,0a1.3,1.3,0,0,1-.88-.84,61.91,61.91,0,0,0-2.25-7.45A1.91,1.91,0,0,1,101.78,9.13Zm-.32,114.75h0s0,0,0,0l-.22-.06.33-.19a1.36,1.36,0,0,0-.1.21Zm-.45-108-.36-.2.3,0ZM98.29,7.42a59.75,59.75,0,0,1,2.45,7.39c-.91.15-1.82-.16-2-.81a62.53,62.53,0,0,0-2.68-7.3A1.87,1.87,0,0,1,98.29,7.42Zm.16,118-.12.24-.2-.08ZM97.91,14.21,97.54,14l.29,0Zm-3.2-8.29L95.22,7l.22-.57L95.22,7a63.24,63.24,0,0,1,2.36,6.13c-.91.22-1.84,0-2.06-.69-.37-1.05-.78-2.1-1.23-3.14-.57-1.32-1.17-2.69-1.86-4A1.84,1.84,0,0,1,94.71,5.92Zm.56,121-.13.23-.2-.08Zm-.56-114.2-.36-.17.27-.07Zm-3.66-8.1.1.19h0a58.14,58.14,0,0,1,2.68,5.66l.49,1.21a2.44,2.44,0,0,1-1,.12l-.12.29h0l.11-.29h-.06a1.22,1.22,0,0,1-1-.69,59.37,59.37,0,0,0-3.5-6.94A1.87,1.87,0,0,1,91.05,4.61Zm1,123.64c0,.08-.11.15-.15.23l-.2-.09ZM91.44,11.39l-.39-.14a2.46,2.46,0,0,0,.29-.09ZM87.32,3.52A62.57,62.57,0,0,1,91,10.39a1.64,1.64,0,0,1-2.12-.46A63.61,63.61,0,0,0,85,3.21,1.88,1.88,0,0,1,87.32,3.52Zm1.35,125.9-.15.21-.18-.1ZM88.09,10.27l-.38-.1.27-.11ZM74.83,132.08l-.19.17-.15-.14ZM74.09,7.56l.15.18-.41,0C73.91,7.65,74,7.62,74.09,7.56Zm-2.8,124.7-.18.15-.15-.14ZM70.55,7.42l.16.18h-.39ZM64.22,1.55A64.23,64.23,0,0,1,70,6.79a1.65,1.65,0,0,1-2.15.29A59.18,59.18,0,0,0,61.9,2,1.84,1.84,0,0,1,64.22,1.55Zm3.54,130.69a1.15,1.15,0,0,0-.19.14l-.14-.15ZM67.18,7.65h-.39L67,7.47ZM60.35,2l1,.72h0a61.34,61.34,0,0,1,5,4.19,1.66,1.66,0,0,1-2.13.41c-.85-.77-1.71-1.44-2.61-2.14-1.14-.91-2.34-1.78-3.56-2.59A1.83,1.83,0,0,1,60.35,2ZM64.24,132a1.43,1.43,0,0,0-.2.14l-.13-.16ZM63.65,7.89l-.38,0a1.89,1.89,0,0,0,.2-.2ZM56.52,2.61l.18.12a60,60,0,0,1,5.1,3.65l1,.82a2.66,2.66,0,0,1-.84.6h0l-.06,0a1.2,1.2,0,0,1-1.21-.12,63.44,63.44,0,0,0-6.43-4.35C54.91,2.59,55.92,2.2,56.52,2.61Zm4.24,129c-.08,0-.16.07-.24.12l-.11-.17ZM60.15,8.34l-.37.07c.06-.07.13-.13.19-.21ZM52.73,3.47A63,63,0,0,1,59.29,7.7a1.68,1.68,0,0,1-2.09.62,63,63,0,0,0-6.66-4A1.92,1.92,0,0,1,52.73,3.47ZM57.25,131l-.21.1-.1-.17ZM56.68,9l-.37.09c.06-.08.12-.14.17-.22ZM49,4.56l1.09.54a59.54,59.54,0,0,1,5.69,3.3,1.7,1.7,0,0,1-2,.74c-1-.56-1.92-1.12-2.92-1.67-1.29-.68-2.6-1.31-4-1.93C47.39,4.71,48.37,4.25,49,4.56Zm4.82,125.62a2,2,0,0,0-.22.09l-.09-.18ZM53.26,9.85l-.39.11c.06-.08.14-.15.19-.23Zm-15-.8,1.16.34h0a61.76,61.76,0,0,1,6.16,2.26c-.44.84-1.24,1.36-1.88,1.1-1-.43-2.1-.81-3.17-1.15-1.37-.45-2.8-.89-4.23-1.24C36.68,9.44,37.57,8.84,38.26,9.05Zm5.61,117.54-.23,0-.06-.19ZM43.34,13.52l-.34.16a1.42,1.42,0,0,0,.12-.25Zm-8.48-2.59.21.05a61.63,61.63,0,0,1,6,1.73l1.23.42a2.58,2.58,0,0,1-.59.86l.14.26h0L41.74,14l-.05,0a1.19,1.19,0,0,1-1.17.3A59.56,59.56,0,0,0,33,12.38C33.33,11.45,34.17,10.75,34.86,10.93ZM40.73,125l-.26,0,0-.19ZM40.19,15.11l-.32.18a2.56,2.56,0,0,0,.11-.24ZM31.57,13a65.89,65.89,0,0,1,7.6,1.8c-.33.89-1.09,1.46-1.75,1.28a63,63,0,0,0-7.62-1.52C30.08,13.61,30.89,12.9,31.57,13Zm6.06,110.29-.22,0,0-.19Zm-.49-106.4a3.28,3.28,0,0,1-.31.2,1.84,1.84,0,0,0,.09-.25Zm-11.73.83h.21c2.1.1,4.21.37,6.22.67l-.73-1c-1.43-.22-2.88-.37-4.38-.51.23-.95,1-1.71,1.69-1.63l1.21.14a60.64,60.64,0,0,1,6.47,1.21c-.28.91-1,1.5-1.67,1.39-1.09-.22-2.19-.42-3.32-.6l.73,1,1.3.23a2.27,2.27,0,0,1-.45.92h0l0,0a1.26,1.26,0,0,1-1.09.52,62.88,62.88,0,0,0-7.76-.68C24,18.46,24.71,17.69,25.41,17.72Zm9.27,103.65h-.24l0-.2ZM34.2,18.84l-.31.22c0-.09.07-.17.09-.27ZM31.82,119.28a1.77,1.77,0,0,0-.23,0l0-.2Zm-.45-98.34-.29.23a2.5,2.5,0,0,0,.07-.26ZM17.22,26l.22,0c2.13-.21,4.18-.36,6.25-.36H25a2.47,2.47,0,0,1-.27,1l0,.05a1.2,1.2,0,0,1-1,.67A64.18,64.18,0,0,0,16,28C16,27,16.51,26.06,17.22,26ZM24,112.15a1.11,1.11,0,0,0-.25-.05v-.2Zm-4.67-5.74.18.26-.22-.07ZM19,33.7l.22,0c-.07.1-.14.21-.22.31A1.31,1.31,0,0,0,19,33.7ZM13.91,97.35a2.44,2.44,0,0,1,.14.28.81.81,0,0,0-.21-.1Zm-.12-54.59c0,.11-.1.22-.16.33a2.56,2.56,0,0,0-.05-.27ZM12.44,94.13a3.09,3.09,0,0,0,.14.32l-.22-.13ZM12.35,46c0,.11-.09.22-.13.33,0-.09,0-.17-.07-.25Zm-8,3.77a62.53,62.53,0,0,1,7-3.37,1.68,1.68,0,0,1-.56,2.1,61.11,61.11,0,0,0-6.88,3.59A1.92,1.92,0,0,1,4.33,49.74Zm6.84,41.1c0,.1.07.21.1.31L11.08,91ZM11,49.6a2.34,2.34,0,0,0-.09-.24l.2-.09C11.05,49.38,11,49.49,11,49.6ZM3.3,53.48l1-.64a62.82,62.82,0,0,1,5.8-3.12,1.74,1.74,0,0,1-.43,2.13c-1,.5-2,1-3,1.61C5.49,54.2,4.26,55,3,55.82A1.92,1.92,0,0,1,3.3,53.48Zm6.79,34,.09.32L10,87.65ZM9.93,53c0-.08-.06-.15-.1-.23l.19-.09ZM2.49,57.28l.18-.12a62.33,62.33,0,0,1,5.25-3.39l1.16-.64a2.29,2.29,0,0,1,.22,1h0v.06a1.24,1.24,0,0,1-.54,1.09,63.43,63.43,0,0,0-6.45,4.35A1.9,1.9,0,0,1,2.49,57.28ZM9.2,84.06c0,.12.05.23.07.34a1.62,1.62,0,0,0-.19-.17ZM9.06,56.38a2.14,2.14,0,0,0-.1-.22l.18-.11C9.11,56.16,9.09,56.27,9.06,56.38Zm-.78,3.25.17-.11-.06.32,0-.07h0A1,1,0,0,1,8.28,59.63Zm.22,21c0,.11,0,.22.05.32-.06-.05-.11-.11-.18-.16ZM6.58,59.77l0,0c-.71.5-1.41,1-2.1,1.57l-.52.41c-.69.55-1.37,1.1-2.06,1.69a1.87,1.87,0,0,1,0-2.36c.54-.44,1.08-.87,1.64-1.29l.32-.24c.58-.44,1.18-.86,1.77-1.27l.56-.39c.68-.45,1.36-.9,2-1.33.42.83.4,1.8-.17,2.16S7.07,59.42,6.58,59.77ZM8,77.44a1.29,1.29,0,0,0-.16-.17L8,77.12C8,77.22,8,77.33,8,77.44ZM8,63c0,.11,0,.22,0,.33a2.39,2.39,0,0,0-.13-.21ZM7.71,73.92a1.29,1.29,0,0,0-.16-.17l.13-.15Zm0-7.39c0,.11,0,.22,0,.33l-.14-.19Zm-.09,3.53c0,.11,0,.22,0,.33l-.15-.18ZM1.38,72.74a60.77,60.77,0,0,1,5.49-5.51,1.64,1.64,0,0,1,.18,2.16,61.21,61.21,0,0,0-5.29,5.68A1.86,1.86,0,0,1,1.38,72.74Zm.26,3.88.77-1A60.67,60.67,0,0,1,6.82,70.8,1.65,1.65,0,0,1,7.12,73c-.77.81-1.49,1.64-2.23,2.51h0c-1,1.11-1.84,2.26-2.73,3.46C1.46,78.22,1.18,77.18,1.64,76.62Zm.47,3.85.13-.17c1.28-1.74,2.48-3.38,3.87-4.94l.87-1a2.22,2.22,0,0,1,.55.86l.28,0-.27,0,0,.06a1.24,1.24,0,0,1-.18,1.21,64.88,64.88,0,0,0-4.62,6.23A1.94,1.94,0,0,1,2.11,80.47Zm.71,3.82a61.93,61.93,0,0,1,4.51-6.36A1.72,1.72,0,0,1,7.87,80a63.32,63.32,0,0,0-4.28,6.49A1.93,1.93,0,0,1,2.82,84.29Zm1.8,6a1.91,1.91,0,0,1-.87-2.18L4.33,87a61.76,61.76,0,0,1,3.54-5.55,1.74,1.74,0,0,1,.67,2.07c-.61.91-1.22,1.87-1.81,2.85h0C6,87.62,5.31,88.92,4.62,90.25Zm1.27,3.66a1.61,1.61,0,0,1-.3-.21l-.06,0a1.8,1.8,0,0,1-.2-.19l-.07-.09-.14-.17-.07-.13A.83.83,0,0,1,5,92.91a.69.69,0,0,1,0-.13,1.66,1.66,0,0,1-.06-.16l0-.13a.88.88,0,0,1,0-.16.48.48,0,0,1,0-.12.76.76,0,0,1,0-.15.36.36,0,0,1,0-.11c0-.06,0-.12,0-.17l.1-.19a60.28,60.28,0,0,1,2.94-5.52L8.62,85a2.54,2.54,0,0,1,.68.75h0l0,.05A1.23,1.23,0,0,1,9.41,87c-.42.69-.82,1.41-1.2,2.13-.11.2-.22.4-.32.61-.31.58-.6,1.17-.89,1.78,0,.11-.11.21-.17.33h0L6.75,92C6.46,92.64,6.17,93.27,5.89,93.91Zm.33,1.52c.49-1.22,1-2.43,1.58-3.6l.09-.18c.53-1.11,1.09-2.2,1.67-3.25.78.52,1.22,1.37.9,2s-.49,1-.73,1.46h0a1.11,1.11,0,0,0-.07.16c-.37.77-.72,1.56-1.06,2.36-.09.2-.17.4-.25.6-.35.84-.68,1.69-1,2.55A1.85,1.85,0,0,1,6.22,95.43ZM9,101c-.9-.42-1.5-1.32-1.25-2l.41-1.15c.35-1,.76-2.08,1.19-3.09l.13-.3c.17-.41.34-.8.52-1.2l.21-.45c.15-.34.31-.69.47-1l.19.13A1,1,0,0,1,11,92a.69.69,0,0,1,.13.11l.12.1.1.12.1.12.08.12.08.13,0,.12.06.14s0,.08,0,.12l0,.14s0,.09,0,.13v.12a.62.62,0,0,1-.07.23c-.47,1-.86,2.06-1.27,3.12l.79-.36-.79.36C9.9,98.19,9.43,99.58,9,101Zm1.85,3.39c-.9-.37-1.56-1.24-1.37-1.92l.06-.21c.61-2.06,1.22-4,2-6h0L12,95.1a2.46,2.46,0,0,1,.82.63h0l0,0a1.22,1.22,0,0,1,.24,1.2A62.84,62.84,0,0,0,10.87,104.39Zm3.9-4.26a62.12,62.12,0,0,0-1.85,7.55c-.93-.32-1.61-1.16-1.47-1.85a61.26,61.26,0,0,1,2.11-7.5A1.68,1.68,0,0,1,14.77,100.13Zm.48-60.19,0-.26.21,0Zm.25,60.71.06-.19c0,.1.11.19.16.28Zm-.2-61.86a61.78,61.78,0,0,0-7.41,2.37,1.86,1.86,0,0,1,.81-2.22,62.23,62.23,0,0,1,7.48-2.13C16.31,37.73,16,38.63,15.3,38.79Zm-5.68-1.1a2.46,2.46,0,0,1,0-.54.31.31,0,0,0,0-.1,1.86,1.86,0,0,1,.09-.47.19.19,0,0,1,0-.08,2.32,2.32,0,0,1,.18-.39s0,0,0,0a1.31,1.31,0,0,1,.27-.3l.07-.06a.94.94,0,0,1,.31-.17l.21-.06h0c2-.61,4.11-1,6.08-1.43l1.31-.21a2.24,2.24,0,0,1-.12,1l.24.16L18,34.84l0,.06a2.92,2.92,0,0,1-.14.31l-.06.08a1,1,0,0,1-.13.16.27.27,0,0,1-.08.07.83.83,0,0,1-.15.11l-.1,0a.8.8,0,0,1-.2.07A62.21,62.21,0,0,0,9.62,37.69Zm7.94,66.09-.23-.1.05-.19ZM17.24,36.6l-.19.29c0-.09,0-.17,0-.25Zm.31,77.27c-1-.18-1.72-1-1.65-1.67V112h0c.18-2.08.55-4.19.92-6.18l.29-1.28a2.43,2.43,0,0,1,.9.48l.22-.15L18,105l0,0a1.15,1.15,0,0,1,.46,1.11A63.66,63.66,0,0,0,17.55,113.87ZM20.68,109a60.06,60.06,0,0,0-.55,7.76c-1-.13-1.79-.86-1.76-1.57a62.37,62.37,0,0,1,.81-7.74C20.08,107.67,20.78,108.33,20.68,109Zm-7-77.91A1.93,1.93,0,0,1,14.81,29a63.62,63.62,0,0,1,7.75-.83c0,.95-.54,1.74-1.22,1.79A63.78,63.78,0,0,0,13.65,31.09Zm8,78.37-.22,0,0-.19Zm-.35-78.61-.23.29a1.13,1.13,0,0,0,0-.26Zm1.46,84.25c-.06,1.46,0,2.92.05,4.4-1-.1-1.85-.73-1.85-1.46v-1.22c0-2.21.16-4.44.37-6.56.94.16,1.64.8,1.59,1.48C22.86,112.87,22.84,114,22.81,115.1Zm.59-86.67a2.26,2.26,0,0,0,0-.26h.22Zm.4,92.31v-.22h0a60,60,0,0,1-.11-6.27l.06-1.31a2.46,2.46,0,0,1,1,.32h0l.05,0a1.23,1.23,0,0,1,.63,1,65.84,65.84,0,0,0,.32,7.76C24.75,122.05,23.86,121.43,23.8,120.74Zm2-94.87c0-.09,0-.17,0-.26h.22A3.07,3.07,0,0,0,25.81,25.87Zm.37-1.09c-1.13-.06-2.25-.06-3.37,0-1.46,0-2.94.1-4.41.24.05-1,.67-1.87,1.4-1.89L21,23a62.05,62.05,0,0,1,6.56.09C27.46,24.05,26.85,24.8,26.18,24.78Zm.31,89.87-.23,0v-.2A2.39,2.39,0,0,0,26.49,114.65Zm1.83,9.82-.13,0-.29-.08-.12-.05a1.63,1.63,0,0,1-.35-.17h0a1.6,1.6,0,0,1-.28-.22l-.05-.06a1.74,1.74,0,0,1-.18-.22s0,0,0-.08a.88.88,0,0,1-.1-.3,60.8,60.8,0,0,1-.5-7.78,1.72,1.72,0,0,1,1.74,1.3c0,1.1.11,2.2.21,3.32,0,.1,0,.2,0,.3q.15,1.59.39,3.18l0,.3h0c0,.2.07.41.1.62A2,2,0,0,1,28.32,124.47Zm.06-101a2,2,0,0,0,.05-.26l.23,0ZM21,22.14c.09-1,.79-1.81,1.5-1.81a60.06,60.06,0,0,1,7.77.47c-.2.9-.82,1.64-1.5,1.57A60.52,60.52,0,0,0,21,22.14Zm7.82,94.69.24.21-.23,0Zm1,8.78-.22-1.19c-.07-.44-.13-.87-.19-1.3,0-.16,0-.32-.07-.48l-.12-1c0-.22-.06-.44-.08-.66s-.07-.64-.1-1l-.06-.6c-.05-.52-.08-1-.1-1.57.92,0,1.73.53,1.81,1.19.11,1.1.22,2.24.39,3.35h0c.07.48.15,1,.24,1.45h0c0,.08,0,.16,0,.24.16.87.32,1.75.51,2.63A1.87,1.87,0,0,1,29.85,125.61Zm3.21,2.18-.05-.21c-.24-.93-.43-1.89-.61-2.83l-.09-.49c-.17-1-.33-1.9-.47-2.82l-.16-1.31a3,3,0,0,1,1,.16l.16-.22-.15.22,0,0a1.19,1.19,0,0,1,.81.9c.11.81.25,1.61.41,2.41a2.51,2.51,0,0,0,0,.27l.09.4c.11.54.23,1.09.35,1.63,0,.23.1.45.16.67.18.74.36,1.48.57,2.23A1.85,1.85,0,0,1,33.06,127.79Zm3.33,2c-.27-.88-.51-1.76-.74-2.64l-.15-.62c-.21-.86-.41-1.71-.59-2.56-.12-.59-.23-1.17-.34-1.75,1-.1,1.82.31,2,1,0,.23.09.46.14.69h0c.06.23.11.47.17.7s.1.46.16.69.19.77.29,1.15c.06.22.11.44.18.66.11.42.23.83.36,1.24,0,.19.1.38.16.57.19.59.38,1.19.59,1.79A1.85,1.85,0,0,1,36.39,129.79Zm7,3.43-.09-.2a61.82,61.82,0,0,1-2.18-5.88l-.56,1.1c.44,1.39,1,2.75,1.52,4.13-1,.23-2-.08-2.23-.77l-.4-1.15h0a58.81,58.81,0,0,1-1.83-6.3,1.64,1.64,0,0,1,2,.86c.28,1.09.62,2.13,1,3.22l.56-1.1-.39-1.25a2.57,2.57,0,0,1,1,0l.13-.24h0l-.13.24h.06a1.23,1.23,0,0,1,.94.78,61.91,61.91,0,0,0,2.9,7.2A1.93,1.93,0,0,1,43.37,133.22Zm5.92,1.91a1.91,1.91,0,0,1-2.3-.52,61.44,61.44,0,0,1-3.07-7.16,1.69,1.69,0,0,1,2.07.64A62.91,62.91,0,0,0,49.29,135.13ZM46.22,12.25a1.88,1.88,0,0,0,.14-.24l.22.1Zm.6,115.6.31.12-.23.07ZM47,11.37a59.23,59.23,0,0,0-7.25-2.81,1.87,1.87,0,0,1,2-1.22,62.21,62.21,0,0,1,7.17,3C48.43,11.17,47.6,11.65,47,11.37ZM43.25,6.94a1.9,1.9,0,0,1,2.09-1.09l.19.08c1.95.81,3.85,1.76,5.64,2.71h0l1.15.65a2.46,2.46,0,0,1-.73.71l.09.29h0L51.59,10l-.05,0a1.23,1.23,0,0,1-1.2.12A63.66,63.66,0,0,0,43.25,6.94ZM49.53,11c0-.08.11-.15.15-.23l.21.11Zm.69,118.24-.09-.19.33.12A2.17,2.17,0,0,0,50.22,129.25Zm4.23,7.53-.12-.18h0c-1.17-1.74-2.21-3.61-3.17-5.4L50.59,130a3,3,0,0,1,1-.19h.07a1.21,1.21,0,0,1,1.06.58A60,60,0,0,0,56.79,137,1.84,1.84,0,0,1,54.45,136.78Zm3.81.76A60.29,60.29,0,0,1,54,131c.84-.41,1.8-.33,2.14.25a58.63,58.63,0,0,0,4.45,6.39A1.84,1.84,0,0,1,58.26,137.54Zm7.71.89-.14-.16a61.72,61.72,0,0,1-4-4.8l-.16,1.22c.89,1.16,1.83,2.3,2.82,3.39a1.85,1.85,0,0,1-2.36,0l-.76-.94h0a58.93,58.93,0,0,1-3.84-5.32,1.65,1.65,0,0,1,2.16.14c.63.94,1.3,1.81,2,2.71l.16-1.22-.78-1a2.33,2.33,0,0,1,1-.37l0-.27h0l0,.27.07,0a1.24,1.24,0,0,1,1.14.42,60.37,60.37,0,0,0,5.13,5.82C67.53,138.85,66.45,139,66,138.43Zm3.88.13a67.28,67.28,0,0,1-5.28-5.75,1.67,1.67,0,0,1,2.16-.08,69.32,69.32,0,0,0,5.46,5.53A1.94,1.94,0,0,1,69.85,138.56Zm3.88-.11-.91-.81h0A60.23,60.23,0,0,1,68.14,133a1.71,1.71,0,0,1,2.16-.2c.78.78,1.58,1.57,2.42,2.35,1.06,1,2.17,1.92,3.34,2.87A1.94,1.94,0,0,1,73.73,138.45Zm3.87-.33-.17-.13h0a61.5,61.5,0,0,1-4.78-4.06l-.94-.92a2.41,2.41,0,0,1,.88-.51v0l.06,0a1.29,1.29,0,0,1,1.2.21,64.12,64.12,0,0,0,6,4.9A1.93,1.93,0,0,1,77.6,138.12Zm6.12-1.19a1.92,1.92,0,0,1-2.27.64,58.57,58.57,0,0,1-6.16-4.76,1.72,1.72,0,0,1,2.12-.45A64.1,64.1,0,0,0,83.72,136.93ZM77.35,8l.25-.14.15.19ZM78,131.75l.34,0c0,.06-.12.11-.17.17ZM78.46,7.62a61.24,61.24,0,0,0-5-6,1.92,1.92,0,0,1,2.36-.06A60.78,60.78,0,0,1,80.63,7.7,1.73,1.73,0,0,1,78.46,7.62Zm2.38.93.26-.13.13.2Zm.82,122.78-.17-.13.36-.06C81.79,131.21,81.72,131.26,81.66,131.33ZM82,8.19a59.49,59.49,0,0,0-4.62-6.25A1.92,1.92,0,0,1,79.71,2l.13.17c1.31,1.69,2.51,3.39,3.61,5.12l.25-1.2c-.77-1.25-1.63-2.4-2.52-3.61a1.91,1.91,0,0,1,2.36.18l.69,1a61.89,61.89,0,0,1,3.36,5.66A1.69,1.69,0,0,1,85.45,9c-.55-1-1.14-1.91-1.75-2.88l-.25,1.2.68,1.13a2.62,2.62,0,0,1-1,.27l-.06.3h0l.06-.3h-.06A1.27,1.27,0,0,1,82,8.19Zm3.3,122.19c0,.07-.11.13-.15.2l-.19-.12Zm-.59-121-.38-.09.27-.12ZM89,135.85l-.19-.1h0a56,56,0,0,1-5.38-3.18l-1.09-.73a3.06,3.06,0,0,1,.78-.67l0-.27,0,.27,0,0a1.2,1.2,0,0,1,1.22,0,60.09,60.09,0,0,0,6.78,3.8A1.85,1.85,0,0,1,89,135.85Zm3.71-1.18A63.28,63.28,0,0,1,85.84,131a1.68,1.68,0,0,1,2-.82,60.23,60.23,0,0,0,7,3.42C94.33,134.48,93.37,135,92.73,134.67Zm3.62-1.39-1.13-.45a62.44,62.44,0,0,1-6-2.8c.5-.81,1.36-1.23,2-.92,1,.52,2,.95,3.06,1.4,1.35.61,2.7,1.11,4.11,1.61C97.94,133,97,133.55,96.35,133.28Zm3.54-1.59-.2-.07a60.22,60.22,0,0,1-5.86-2.25l-1.19-.54a2.41,2.41,0,0,1,.66-.78h0l.06,0a1.25,1.25,0,0,1,1.2-.19,61.31,61.31,0,0,0,7.32,2.58C101.47,131.3,100.56,131.89,99.89,131.69Zm3.45-1.81a61.76,61.76,0,0,1-7.41-2.42,1.71,1.71,0,0,1,1.85-1.13,64.07,64.07,0,0,0,7.47,2.17C104.89,129.42,104,130.06,103.34,129.88Zm6.55-4.16-.21,0c-2.09-.29-4.16-.72-6.15-1.2l.65,1.05c1.4.31,2.86.63,4.32.87-.29,1-1.14,1.61-1.83,1.47l-1.18-.24a57.25,57.25,0,0,1-6.34-1.74c.36-.86,1.13-1.43,1.77-1.25,1.07.31,2.17.63,3.26.88l-.65-1-1.26-.33a3.31,3.31,0,0,1,.15-.33,2.44,2.44,0,0,1,.36-.56l0,0a1.2,1.2,0,0,1,1.13-.41c.83.2,1.66.38,2.5.54l.69.13c.81.15,1.63.28,2.45.4h.07c.65.08,1.3.17,2,.24C111.4,125.11,110.59,125.82,109.89,125.72Zm3.09-2.35a67.12,67.12,0,0,1-7.69-1.12c.24-.93.95-1.58,1.61-1.45a59,59,0,0,0,7.73.88C114.43,122.65,113.7,123.44,113,123.37Zm3-2.52-1.22,0a62.5,62.5,0,0,1-6.53-.65c.19-.93.86-1.61,1.54-1.52,1.11.14,2.21.22,3.34.3,1.47.12,2.92.14,4.42.14C117.33,120,116.65,120.88,115.94,120.85Zm2.81-2.68h-.22a62,62,0,0,1-6.27-.16l-1.3-.11a2.19,2.19,0,0,1,.37-1h0l0-.05a1.26,1.26,0,0,1,1.07-.58,67.09,67.09,0,0,0,7.77,0C120.1,117.29,119.45,118.14,118.75,118.17Zm2.64-2.84a61.57,61.57,0,0,1-7.78.17c.1-.93.7-1.67,1.36-1.68a64.3,64.3,0,0,0,7.77-.42C122.71,114.37,122.09,115.26,121.39,115.33Zm2.49-3-1.2.16a61.32,61.32,0,0,1-6.56.46c.06-.93.58-1.73,1.26-1.77,1.1-.06,2.26-.11,3.36-.25,1.43-.16,2.93-.34,4.37-.61A1.86,1.86,0,0,1,123.88,112.34Zm2.32-3.12-.22,0h0a61,61,0,0,1-6.18.91h0l-1.3.11a2.79,2.79,0,0,1,.19-1h0l0-.06a1.17,1.17,0,0,1,.94-.76,59.67,59.67,0,0,0,7.67-1.3A1.84,1.84,0,0,1,126.2,109.22Zm2.14-3.24a62.73,62.73,0,0,1-7.64,1.49c-.08-1,.38-1.79,1-1.89a62.58,62.58,0,0,0,7.58-1.74C129.46,104.82,129,105.82,128.34,106Zm2-3.35-1.18.35a58.07,58.07,0,0,1-6.38,1.56,1.64,1.64,0,0,1,1-2c1.07-.25,2.15-.52,3.25-.82h0c1.44-.38,2.78-.85,4.21-1.34A2,2,0,0,1,130.3,102.63ZM132,99.16l-.2.08h0c-2,.75-4,1.41-6,1.94l.53.3-.54-.3-1.27.33a2.22,2.22,0,0,1,0-1l-.26-.15h0l.25.14,0,0a1.29,1.29,0,0,1,.81-.91,63.47,63.47,0,0,0,7.33-2.58A1.92,1.92,0,0,1,132,99.16Zm1.56-3.56a59.92,59.92,0,0,1-7.29,2.75,1.73,1.73,0,0,1,.72-2,62.9,62.9,0,0,0,7.19-3A1.92,1.92,0,0,1,133.6,95.6Zm2-4.75s0,.06,0,.08a1.73,1.73,0,0,1-.15.47l0,.07a1.13,1.13,0,0,1-.27.34.59.59,0,0,1-.18.13l-1.08.57a62,62,0,0,1-6,2.61c-.24-.89,0-1.83.61-2.08l1.43-.6.42-.19c.31-.14.62-.27.92-.42h0l.31-.15h0c1.29-.63,2.65-1.29,3.92-2a2,2,0,0,1,.15.59.17.17,0,0,1,0,.07A2,2,0,0,1,135.59,90.85Zm.49-2.61-.18.1a57.79,57.79,0,0,1-5.54,2.93l-1.19.54a2.56,2.56,0,0,1-.15-1l-.29-.1h0l.28.1v-.06a1.18,1.18,0,0,1,.63-1,59.21,59.21,0,0,0,6.79-3.79A1.85,1.85,0,0,1,136.08,88.24Zm1.15-6.12a1.86,1.86,0,0,1-.21,2.35,66,66,0,0,1-6.7,4,1.66,1.66,0,0,1,.35-2.14A60.7,60.7,0,0,0,137.23,82.12Zm-6.26-25a2.11,2.11,0,0,0,.23.19l-.15.21C131,57.4,131,57.27,131,57.14Zm.13,24.94.06-.38a2,2,0,0,0,.13.25Zm7.13-5.28-.16.13c-1.68,1.37-3.24,2.66-5,3.82h0l-1.09.74a2.51,2.51,0,0,1-.32-1l-.3-.05h0l.3.05v-.06a1.27,1.27,0,0,1,.46-1.12,65,65,0,0,0,6-4.89A1.92,1.92,0,0,1,138.23,76.8Z"/><path class="cls-3" d="M138.83,73.84l.27-.25a2.11,2.11,0,0,0,.6-1.5,3.43,3.43,0,0,0-.75-2.17h0l.23-.24a2.85,2.85,0,0,0-.35-3.65l.22-.26a2.83,2.83,0,0,0-.56-3.63l.2-.27a2.21,2.21,0,0,0,.38-1.61,2.29,2.29,0,0,0-.11-.49h0s0,0,0,0l0-.07a3,3,0,0,0-.18-.41l-.09-.14a3.29,3.29,0,0,0-.23-.33l-.1-.12a3,3,0,0,0-.4-.39l-1.18.2c-.29.44-.6.87-.91,1.3h0c-.45.63-.92,1.24-1.4,1.85l-.31.39c-.45.57-.91,1.13-1.36,1.68a1.69,1.69,0,0,1-.5-2.12c.48-.59.95-1.19,1.4-1.8h0l.64-.89c.82-1.17,1.68-2.41,2.42-3.67a1.84,1.84,0,0,1,.69,2.25l-.67,1,1.21-.21.18-.28a2.78,2.78,0,0,0-.95-3.54l.17-.3a2.77,2.77,0,0,0-1.15-3.48l.16-.31a2.06,2.06,0,0,0,.1-1.64A3.51,3.51,0,0,0,135,46.93l-1.15.41a55.25,55.25,0,0,1-3.05,5.82,1.67,1.67,0,0,1-.82-2c.52-1,1-2,1.53-3,.66-1.32,1.2-2.65,1.77-4a1.91,1.91,0,0,1,1.08,2.09l-.51,1.12,1.16-.41.14-.31c.51-1.1-.26-2.62-1.54-3.33l.13-.32A2.88,2.88,0,0,0,132,39.73l.11-.32a2.23,2.23,0,0,0-.2-1.64,3.18,3.18,0,0,0-1.73-1.5h0l.08-.32a1.43,1.43,0,0,0,0-.22.48.48,0,0,0,0-.12.67.67,0,0,0,0-.2,1.64,1.64,0,0,0,0-.23c0-.07,0-.14,0-.21a1.55,1.55,0,0,0-.08-.23,1.19,1.19,0,0,0-.08-.2L130,34.3l-.11-.18-.18-.22-.14-.16-.23-.21-.16-.13a3,3,0,0,0-.3-.19l-.15-.08a3.75,3.75,0,0,0-.5-.21l.07-.34a2.8,2.8,0,0,0-2.26-2.9l.05-.33a2,2,0,0,0-.45-1.58,3.4,3.4,0,0,0-2-1.19l-.94.76a59.65,59.65,0,0,1-.94,6.51c-.91-.24-1.56-1-1.44-1.62.17-1.08.32-2.19.44-3.33l-.95.77L119.62,31a2.3,2.3,0,0,1-.94-.41l-.24.2h0l.23-.2,0,0a1.25,1.25,0,0,1-.55-1.08,66.07,66.07,0,0,0,.34-7.77c1,.14,1.79.84,1.79,1.53v.22c0,2.12-.18,4.21-.42,6.24l.95-.77c.18-1.46.25-2.9.33-4.4,1,.19,1.75.93,1.7,1.62l-.09,1.22.95-.77,0-.34c.1-1.2-1.12-2.38-2.56-2.63v-.34a2.86,2.86,0,0,0-2.72-2.47v-.33a2.24,2.24,0,0,0-.72-1.49,3.11,3.11,0,0,0-2.14-.83h0l0-.34a2.79,2.79,0,0,0-3-2.15l0-.34c-.16-1.2-1.6-2.1-3.09-2l-.07-.33a2,2,0,0,0-.95-1.34,3.44,3.44,0,0,0-2.25-.47v0l-.09-.32c-.3-1.15-1.83-1.89-3.28-1.63l-.12-.32a2.81,2.81,0,0,0-3.37-1.43l-.13-.32A2.16,2.16,0,0,0,98,6a3.13,3.13,0,0,0-2.3-.08h0l-.13-.31a2.8,2.8,0,0,0-3.53-1l-.15-.31c-.56-1.08-2.22-1.44-3.58-.84L88.1,3.1a2,2,0,0,0-1.35-.94,3.37,3.37,0,0,0-2.27.31h0l-.19-.28c-.67-1-2.36-1.16-3.64-.44l-.22-.27a2.87,2.87,0,0,0-3.66-.22L76.55,1a2.19,2.19,0,0,0-1.5-.69A3.2,3.2,0,0,0,72.87,1L72.82,2.2c1.53,1.63,3,3.3,4.27,5-.78.49-1.74.57-2.17,0-.71-.84-1.44-1.74-2.2-2.55l-.06,1.23.87,1a2.73,2.73,0,0,1-.93.44l-.06,0a1.2,1.2,0,0,1-1.18-.3,61,61,0,0,0-5.6-5.39,1.86,1.86,0,0,1,2.34-.33l.15.14a61.39,61.39,0,0,1,4.41,4.43l.06-1.22c-1-1.05-2-2.13-3.09-3.16A1.88,1.88,0,0,1,72,1.34l.85.86L72.87,1,72.63.75A2.79,2.79,0,0,0,69,.93L68.72.7a2.8,2.8,0,0,0-3.65.4L64.8.88A2.22,2.22,0,0,0,63.22.43a3.31,3.31,0,0,0-2,1.06l.13,1.06-.13-1.07-.27-.2a2.77,2.77,0,0,0-3.58.8L57,1.89c-1-.69-2.63-.17-3.53,1l-.31-.17a2,2,0,0,0-1.62-.17,3.46,3.46,0,0,0-1.84,1.37h0l-.3-.15A2.87,2.87,0,0,0,46,5.17L45.72,5a2.81,2.81,0,0,0-3.3,1.6l-.33-.12a2.15,2.15,0,0,0-1.64.12,3.14,3.14,0,0,0-1.57,1.67h0l-.32-.1a2.78,2.78,0,0,0-3.1,2l-.34-.08c-1.18-.3-2.54.71-3,2.13l-.34-.06a2,2,0,0,0-1.59.39,3.42,3.42,0,0,0-1.28,1.9h0l-.33,0a2.85,2.85,0,0,0-2.73,2.45H25.5a2.82,2.82,0,0,0-2.59,2.6h-.34a2.21,2.21,0,0,0-1.51.65,3.19,3.19,0,0,0-.92,2.11h-.35a2.78,2.78,0,0,0-2.27,2.88l-.35,0c-1.22.11-2.14,1.53-2.11,3l-.35.05a2,2,0,0,0-1.36.9,3.37,3.37,0,0,0-.58,2.21l1,.69a60.59,60.59,0,0,1,6.52-1,1.72,1.72,0,0,1-1.13,1.86c-1.09.15-2.21.33-3.33.53-1.42.28-2.84.61-4.3,1a1.93,1.93,0,0,1,1.06-2.1L13.77,32l-1-.69-.33.08a2.82,2.82,0,0,0-1.75,3.22l-.33.09a1.71,1.71,0,0,0-.39.17l-.12.09-.23.17a.74.74,0,0,0-.12.13,1.8,1.8,0,0,0-.19.2l-.1.16-.1.14h0l0,.1c0,.08-.07.16-.11.25l-.09.23c0,.1,0,.2-.08.31s0,.15,0,.22a2.3,2.3,0,0,0,0,.37c0,.07,0,.13,0,.2a4,4,0,0,0,.07.58l-.32.11A2.26,2.26,0,0,0,7.23,39.2a3.33,3.33,0,0,0-.16,2.3l1.11.5a62.17,62.17,0,0,1,6.21-2.1,1.66,1.66,0,0,1-.78,2c-1.08.32-2.12.7-3.17,1.09l1.11.51,1.23-.44a2.45,2.45,0,0,1,.08,1h0v.06a1.24,1.24,0,0,1-.73,1A63.36,63.36,0,0,0,5,48.35c-.31-.92-.1-2,.55-2.29l.2-.1a62.1,62.1,0,0,1,5.77-2.43L10.44,43c-1.38.51-2.74,1.07-4.08,1.69-.28-1,0-2,.68-2.25L8.18,42l-1.13-.51-.31.13c-1.13.44-1.66,2.05-1.19,3.47l-.31.14c-1.12.51-1.51,2.16-1,3.55l-.31.15a2.08,2.08,0,0,0-1,1.32,3.36,3.36,0,0,0,.21,2.28h0l-.29.18a2.84,2.84,0,0,0-.57,3.62l-.28.2a2.09,2.09,0,0,0-.31.29l-.08.12a1.43,1.43,0,0,0-.16.24l-.07.16a1.86,1.86,0,0,0-.1.25,1.33,1.33,0,0,0-.05.19L1.17,58c0,.07,0,.14,0,.21a2.44,2.44,0,0,0,0,.27c0,.08,0,.15,0,.22a2.89,2.89,0,0,0,0,.29,1.42,1.42,0,0,0,0,.2c0,.11.06.21.1.32l.06.17a.07.07,0,0,1,0,.05h0a3.3,3.3,0,0,0,.23.41l-.27.22A2.19,2.19,0,0,0,.6,61.85a3.16,3.16,0,0,0,.6,2.22l1.21.1a62.18,62.18,0,0,1,5.15-4.05,1.66,1.66,0,0,1,0,2.16c-.91.68-1.79,1.37-2.63,2.11l1.22.1,1-.83a2.36,2.36,0,0,1,.42,1h0v.06a1.21,1.21,0,0,1-.36,1.16A61.47,61.47,0,0,0,1.58,71.2a1.83,1.83,0,0,1-.25-2.34l.16-.15a55.35,55.35,0,0,1,4.62-4.22l-1.23-.1c-1.09.93-2.23,1.91-3.27,3A1.85,1.85,0,0,1,1.51,65l.9-.81-1.22-.1-.26.22A2.8,2.8,0,0,0,1,68l-.24.25A2.75,2.75,0,0,0,1,71.86l-.23.26a2.12,2.12,0,0,0-.52,1.56,3.49,3.49,0,0,0,1,2.09h0L1,76c-.78.94-.42,2.6.65,3.61l-.2.28c-.72,1-.27,2.63.86,3.58l-.19.29a2.08,2.08,0,0,0-.22,1.62,3.34,3.34,0,0,0,1.28,1.9h0L3,87.6a2.86,2.86,0,0,0,1.26,3.46l-.15.3a2.35,2.35,0,0,0-.14.45v0H4a2.6,2.6,0,0,0,0,.4s0,0,0,.08a2.23,2.23,0,0,0,0,.36s0,.11,0,.16l.09.28a.89.89,0,0,0,.08.17,2.1,2.1,0,0,0,.13.26.91.91,0,0,0,.11.16,2.27,2.27,0,0,0,.18.25l.12.15.26.24.12.1a2.23,2.23,0,0,0,.44.29l-.13.32a2.24,2.24,0,0,0,0,1.65,3.31,3.31,0,0,0,1.62,1.64h0l-.1.31c-.42,1.15.45,2.61,1.81,3.19l-.1.34c-.35,1.17.63,2.55,2,3.08l-.08.33a2,2,0,0,0,.33,1.6,3.35,3.35,0,0,0,1.85,1.36l1-.67a64,64,0,0,1,1.49-6.42c.88.33,1.46,1.08,1.31,1.73-.26,1.07-.52,2.17-.74,3.29-.26,1.41-.49,2.87-.69,4.36-1-.27-1.66-1.08-1.56-1.77l.19-1.19-1,.69-.06.32a2.84,2.84,0,0,0,2.35,2.83l0,.34a2.8,2.8,0,0,0,2.49,2.69v.34a2.12,2.12,0,0,0,.58,1.54,3.29,3.29,0,0,0,2.07,1V118c0,1.22,1.3,2.29,2.77,2.4l0,.34C23,122,24.36,123,25.83,123l0,.34a1.71,1.71,0,0,0,.14.49s0,.05,0,.06h0l0,.07a2.61,2.61,0,0,0,.17.28l.1.13a2.53,2.53,0,0,0,.37.36,3.29,3.29,0,0,0,2.19.67h0l.06.33a2.82,2.82,0,0,0,3.15,1.89l.07.33a2.79,2.79,0,0,0,3.26,1.71l.09.33a2.24,2.24,0,0,0,1,1.27,3.39,3.39,0,0,0,2.3.26l.23-.45-.24.47.11.31c.39,1.16,2,1.73,3.42,1.35l.13.31c.47,1.12,2.09,1.6,3.49,1.15l.15.31a2.18,2.18,0,0,0,1.27,1,3.3,3.3,0,0,0,2.29-.1l.36-1.16a63,63,0,0,1-2.87-5.92,1.72,1.72,0,0,1,2.1.52c.47,1,1,2,1.5,3,.68,1.26,1.41,2.54,2.19,3.82a1.91,1.91,0,0,1-2.32-.4l-.6-1.05-.36,1.17.16.29a2.83,2.83,0,0,0,3.6.74l.18.28a2.81,2.81,0,0,0,3.64.53l.21.28a2.13,2.13,0,0,0,1.42.83,3.28,3.28,0,0,0,2.24-.52l0-.32,0,.34.21.26a2.78,2.78,0,0,0,3.67.11l.23.26c.81.92,2.5.82,3.67-.1l.24.25a2,2,0,0,0,1.54.57,3.46,3.46,0,0,0,2.13-.87v0l.25.22c.9.8,2.58.52,3.63-.49l.28.21a2.86,2.86,0,0,0,3.6-.71l.28.2a2.17,2.17,0,0,0,1.62.29,3.2,3.2,0,0,0,1.94-1.21l-.24-1.18a65.51,65.51,0,0,1-5.4-3.78c.64-.67,1.55-1,2.1-.58.89.64,1.83,1.34,2.77,1.93,1.21.76,2.48,1.56,3.79,2.26a1.88,1.88,0,0,1-2.23.79l-1-.62.25,1.19.29.17a2.8,2.8,0,0,0,3.5-1.11l.29.16a2.78,2.78,0,0,0,3.44-1.3l.31.14a2.23,2.23,0,0,0,1.65.05A3.55,3.55,0,0,0,95.67,134h0l.32.13c1.13.47,2.6-.36,3.26-1.69l.32.11c1.15.39,2.59-.51,3.17-1.86l.34.09a2.15,2.15,0,0,0,1.61-.27,3.27,3.27,0,0,0,1.43-1.79h0l.33.06a2.79,2.79,0,0,0,2.92-2.21l.34,0a2.8,2.8,0,0,0,2.8-2.38l.33,0a2.54,2.54,0,0,0,.39,0l.11,0a2,2,0,0,0,.26-.06l.14,0a1.22,1.22,0,0,0,.24-.1l.12-.07.1,0h0l.2-.16a3.45,3.45,0,0,0,1.1-2h.34c1.23.07,2.34-1.21,2.52-2.66h.35c1.19,0,2.26-1.34,2.36-2.81l.34,0a2.19,2.19,0,0,0,1.44-.79,3.21,3.21,0,0,0,.75-2.16h0l.33,0a2.79,2.79,0,0,0,2-3.06l.34-.06a2.78,2.78,0,0,0,1.85-3.17l.34-.09a2.13,2.13,0,0,0,1.3-1,3.38,3.38,0,0,0,.36-2.27h0l.32-.1c1.17-.34,1.79-1.92,1.49-3.35l.33-.12a2.87,2.87,0,0,0,1.29-3.44l.31-.14A2.17,2.17,0,0,0,135,95.21a3.25,3.25,0,0,0,0-2.3h0l.29-.16a2.13,2.13,0,0,0,.45-.34l.11-.12a2,2,0,0,0,.26-.39.35.35,0,0,0,.05-.08h0v0a3.27,3.27,0,0,0,.2-.55s0-.08,0-.12a3.93,3.93,0,0,0,.06-.48v-.2a3.13,3.13,0,0,0,0-.44l0-.2a3.45,3.45,0,0,0-.2-.62l.3-.18a2.76,2.76,0,0,0,.68-3.6l.29-.19a2.2,2.2,0,0,0,.9-1.39,3.35,3.35,0,0,0-.44-2.26l-1.18-.2a60.13,60.13,0,0,1-5.49,3.6,1.67,1.67,0,0,1,.25-2.16c1-.58,1.85-1.21,2.8-1.86,1.2-.83,2.34-1.73,3.5-2.67a1.9,1.9,0,0,1-.07,2.36l-1,.73,1.21.2.27-.19c1-.72,1.06-2.42.27-3.67l.26-.22C139.7,76.73,139.68,75,138.83,73.84Zm-.33-.92a64.47,64.47,0,0,1-5.94,5,1.69,1.69,0,0,1,0-2.17,60.88,60.88,0,0,0,5.76-5.22A1.92,1.92,0,0,1,138.5,72.92Zm-6.25,2-.19.16,0-.4C132.14,74.78,132.19,74.86,132.25,74.94Zm0-3.37c0-.14,0-.27,0-.41.06.08.1.17.16.25ZM138.56,69l-.83.88a65.05,65.05,0,0,1-4.83,4.48,1.73,1.73,0,0,1-.12-2.17c.82-.74,1.65-1.51,2.47-2.31h0q1.5-1.53,3-3.21A1.91,1.91,0,0,1,138.56,69Zm-.17-3.88-.13.17c-1.33,1.62-2.83,3.15-4.24,4.59l-1,.91a2.18,2.18,0,0,1-.46-.91h0l0-.06a1.22,1.22,0,0,1,.25-1.19A64.66,64.66,0,0,0,138,62.85,1.9,1.9,0,0,1,138.39,65.16Zm-5.76,0c.7-.76,1.37-1.56,2-2.37l.3-.36c.6-.77,1.19-1.56,1.78-2.36.06-.09.13-.17.19-.25h0c.17-.26.35-.51.53-.77a3,3,0,0,1,.3.33l.07.11c.06.09.12.18.17.27a.54.54,0,0,0,.05.11,2.32,2.32,0,0,1,.17.75.28.28,0,0,1,0,.09,1.09,1.09,0,0,1,0,.26.29.29,0,0,0,0,.09,1.14,1.14,0,0,1-.15.29,60.7,60.7,0,0,1-5,6C132.41,66.56,132.17,65.62,132.63,65.11Zm-.22,2.76-.17.17c0-.13,0-.27,0-.4A2,2,0,0,0,132.41,67.87Zm-.21-3.53-.16.18,0-.4C132.07,64.19,132.13,64.27,132.2,64.34Zm4.42-10.68-.11.19h0a56.37,56.37,0,0,1-3.42,5.25l-.77,1a2.5,2.5,0,0,1-.36-.37,1.91,1.91,0,0,1-.28-.44l0,0a1.19,1.19,0,0,1,.06-1.22,56.79,56.79,0,0,0,4.08-6.61A1.84,1.84,0,0,1,136.62,53.66Zm-4.9,24.56.14.24-.19.15C131.69,78.48,131.71,78.35,131.72,78.22ZM131.64,61c0-.13,0-.26,0-.39l.21.19ZM131,54.59a62.75,62.75,0,0,0,3.69-6.84c.82.54,1.3,1.53,1,2.16a63.07,63.07,0,0,1-4,6.72A1.65,1.65,0,0,1,131,54.59Zm-.42,30.82-.21.11.09-.37C130.45,85.24,130.48,85.32,130.53,85.41Zm-.15-31.52-.13.21c0-.13-.07-.26-.11-.39A2.15,2.15,0,0,0,130.38,53.89Zm2.54-11.27-.08.2a59.59,59.59,0,0,1-2.48,5.75l-.59,1.17a2.28,2.28,0,0,1-.75-.69l-.3.1.29-.1,0,0a1.35,1.35,0,0,1-.16-1.21,63.47,63.47,0,0,0,2.92-7.21A1.94,1.94,0,0,1,132.92,42.62Zm-3.46,45.93a2.67,2.67,0,0,0,.09.26l-.21.1C129.37,88.79,129.42,88.67,129.46,88.55Zm-.21-37.83c0-.14-.09-.27-.13-.41.09.06.16.14.25.19ZM130,37.13c.91.39,1.5,1.3,1.29,2a58.72,58.72,0,0,1-2.73,7.3c-.81-.45-1.3-1.28-1.06-1.9A63.76,63.76,0,0,0,130,37.13ZM128.3,91.89a2.58,2.58,0,0,0,.08.26l-.22.08C128.21,92.12,128.26,92,128.3,91.89Zm-.23-44.49-.15-.38a2.07,2.07,0,0,0,.25.15Zm-.53-11.53s0-.1,0-.15h0c.16-.64.31-1.28.43-1.92a1.86,1.86,0,0,1,1.41,1.88l-.3,1.18a59.4,59.4,0,0,1-2,6.26c-.83-.41-1.41-1.19-1.17-1.83.36-1,.73-2.14,1-3.21h0C127.15,37.35,127.35,36.61,127.54,35.87ZM127,95.41l-.21.08.15-.35Zm-.23-51.49-.09.23-.17-.38C126.62,43.82,126.7,43.88,126.79,43.92Zm-1.46-10.29c0-.24.09-.49.14-.73.15-.77.28-1.55.4-2.33,1,.28,1.66,1.1,1.52,1.8l0,.22c-.19,1-.42,2.08-.66,3.1s-.52,2-.8,3h0l-.37,1.25a2.28,2.28,0,0,1-.87-.55l-.28.15h0l.27-.15,0,0a1.22,1.22,0,0,1-.35-1.16q.3-1.08.57-2.19c0-.09,0-.17.07-.26h0c0-.15.07-.31.1-.47Q125.17,34.44,125.33,33.63Zm.16,65-.22.06.17-.33A2.56,2.56,0,0,0,125.49,98.6Zm-.26-57.86-.08.23c-.07-.12-.13-.25-.19-.37C125.05,40.64,125.13,40.7,125.23,40.74Zm-2.88-5.59a64.92,64.92,0,0,0,1.2-7.67c1,.23,1.73,1,1.62,1.7-.13,1-.29,2-.46,3l-.09.51c-.18.95-.37,1.88-.58,2.8-.11.45-.21.9-.32,1.34a2.54,2.54,0,0,1-.41-.18l-.1,0-.29-.2,0,0a2.37,2.37,0,0,1-.27-.28l0-.07a1.23,1.23,0,0,1-.14-.25l0-.08a1.16,1.16,0,0,1,0-.18s0-.06,0-.09A.82.82,0,0,1,122.35,35.15Zm1.44,66.55-.24,0,.21-.35A1.53,1.53,0,0,0,123.79,101.7Zm-.29-64.05-.07.25c-.07-.11-.13-.23-.2-.35A1.25,1.25,0,0,0,123.5,37.65Zm-1.62,66.77c0,.09,0,.18,0,.27l-.22,0Zm-.3-69.74,0,.24-.23-.33A2.29,2.29,0,0,0,121.58,34.68Zm-1.74,72.64v.26l-.23,0Zm-.34-75.5,0,.25-.27-.34C119.3,31.76,119.39,31.8,119.5,31.82Zm-2-11.37a60.86,60.86,0,0,1-.16,7.78c-.91-.15-1.65-.76-1.62-1.43a61.45,61.45,0,0,0-.1-7.78A1.89,1.89,0,0,1,117.49,20.45Zm.17,89.6a2.4,2.4,0,0,0,0,.28l-.23,0Zm-.4-81,0,.24A3.88,3.88,0,0,1,117,29Zm-2.65-11.26.11,1.22.59-.67-.59.67a62.93,62.93,0,0,1,.18,6.56c-.93-.1-1.71-.64-1.71-1.34,0-1.11,0-2.24-.12-3.36-.09-1.44-.2-2.94-.41-4.39A1.86,1.86,0,0,1,114.61,17.83Zm.68,94.86a2.66,2.66,0,0,0,0,.28H115A3.45,3.45,0,0,0,115.29,112.69Zm-.42-86.22,0,.25-.28-.3ZM112.8,115.2a2,2,0,0,0,0,.26h-.22Zm-1.2-99.81,0,.21h0a55.52,55.52,0,0,1,.64,6.23l.06,1.3a2.57,2.57,0,0,1-1-.22l-.21.23h0l.2-.22,0,0a1.19,1.19,0,0,1-.72-1,59.3,59.3,0,0,0-1-7.71C110.55,14.15,111.5,14.67,111.6,15.39Zm.74,8.6v.25L112,24C112.14,24,112.24,24,112.34,24Zm-2.16,93.55a2.86,2.86,0,0,0-.07.28l-.22,0Zm-.48-95.63-.32-.26c.1,0,.2,0,.3,0Zm-1.25-8.8a66.1,66.1,0,0,1,1.16,7.7c-1,0-1.77-.46-1.84-1.14A63.73,63.73,0,0,0,106.35,12C107.33,11.94,108.31,12.42,108.45,13.11Zm-1,106.66a1.83,1.83,0,0,0-.06.25l-.23,0Zm-.49-100-.33-.24h.29ZM105.18,11l.31,1.18a62.76,62.76,0,0,1,1.27,6.45,1.69,1.69,0,0,1-1.9-1c-.2-1.08-.43-2.18-.68-3.29h0c-.32-1.43-.73-2.81-1.15-4.25A1.91,1.91,0,0,1,105.18,11Zm-.65,110.79-.09.25-.22,0ZM104,17.73l-.36-.23c.1,0,.2,0,.31,0Zm-2.24-8.6.07.2a59.71,59.71,0,0,1,1.68,6l.27,1.29a2.64,2.64,0,0,1-1-.07l-.16.26h0l.16-.26-.06,0a1.3,1.3,0,0,1-.88-.84,61.91,61.91,0,0,0-2.25-7.45A1.91,1.91,0,0,1,101.78,9.13Zm-.32,114.75h0s0,0,0,0l-.22-.06.33-.19a1.36,1.36,0,0,0-.1.21Zm-.45-108-.36-.2.3,0ZM98.29,7.42a59.75,59.75,0,0,1,2.45,7.39c-.91.15-1.82-.16-2-.81a62.53,62.53,0,0,0-2.68-7.3A1.87,1.87,0,0,1,98.29,7.42Zm.16,118-.12.24-.2-.08ZM97.91,14.21,97.54,14l.29,0Zm-3.2-8.29L95.22,7l.22-.57L95.22,7a63.24,63.24,0,0,1,2.36,6.13c-.91.22-1.84,0-2.06-.69-.37-1.05-.78-2.1-1.23-3.14-.57-1.32-1.17-2.69-1.86-4A1.84,1.84,0,0,1,94.71,5.92Zm.56,121-.13.23-.2-.08Zm-.56-114.2-.36-.17.27-.07Zm-3.66-8.1.1.19h0a58.14,58.14,0,0,1,2.68,5.66l.49,1.21a2.44,2.44,0,0,1-1,.12l-.12.29h0l.11-.29h-.06a1.22,1.22,0,0,1-1-.69,59.37,59.37,0,0,0-3.5-6.94A1.87,1.87,0,0,1,91.05,4.61Zm1,123.64c0,.08-.11.15-.15.23l-.2-.09ZM91.44,11.39l-.39-.14a2.46,2.46,0,0,0,.29-.09ZM87.32,3.52A62.57,62.57,0,0,1,91,10.39a1.64,1.64,0,0,1-2.12-.46A63.61,63.61,0,0,0,85,3.21,1.88,1.88,0,0,1,87.32,3.52Zm1.35,125.9-.15.21-.18-.1ZM88.09,10.27l-.38-.1.27-.11ZM74.83,132.08l-.19.17-.15-.14ZM74.09,7.56l.15.18-.41,0C73.91,7.65,74,7.62,74.09,7.56Zm-2.8,124.7-.18.15-.15-.14ZM70.55,7.42l.16.18h-.39ZM64.22,1.55A64.23,64.23,0,0,1,70,6.79a1.65,1.65,0,0,1-2.15.29A59.18,59.18,0,0,0,61.9,2,1.84,1.84,0,0,1,64.22,1.55Zm3.54,130.69a1.15,1.15,0,0,0-.19.14l-.14-.15ZM67.18,7.65h-.39L67,7.47ZM60.35,2l1,.72h0a61.34,61.34,0,0,1,5,4.19,1.66,1.66,0,0,1-2.13.41c-.85-.77-1.71-1.44-2.61-2.14-1.14-.91-2.34-1.78-3.56-2.59A1.83,1.83,0,0,1,60.35,2ZM64.24,132a1.43,1.43,0,0,0-.2.14l-.13-.16ZM63.65,7.89l-.38,0a1.89,1.89,0,0,0,.2-.2ZM56.52,2.61l.18.12a60,60,0,0,1,5.1,3.65l1,.82a2.66,2.66,0,0,1-.84.6h0l-.06,0a1.2,1.2,0,0,1-1.21-.12,63.44,63.44,0,0,0-6.43-4.35C54.91,2.59,55.92,2.2,56.52,2.61Zm4.24,129c-.08,0-.16.07-.24.12l-.11-.17ZM60.15,8.34l-.37.07c.06-.07.13-.13.19-.21ZM52.73,3.47A63,63,0,0,1,59.29,7.7a1.68,1.68,0,0,1-2.09.62,63,63,0,0,0-6.66-4A1.92,1.92,0,0,1,52.73,3.47ZM57.25,131l-.21.1-.1-.17ZM56.68,9l-.37.09c.06-.08.12-.14.17-.22ZM49,4.56l1.09.54a59.54,59.54,0,0,1,5.69,3.3,1.7,1.7,0,0,1-2,.74c-1-.56-1.92-1.12-2.92-1.67-1.29-.68-2.6-1.31-4-1.93C47.39,4.71,48.37,4.25,49,4.56Zm4.82,125.62a2,2,0,0,0-.22.09l-.09-.18ZM53.26,9.85l-.39.11c.06-.08.14-.15.19-.23Zm-15-.8,1.16.34h0a61.76,61.76,0,0,1,6.16,2.26c-.44.84-1.24,1.36-1.88,1.1-1-.43-2.1-.81-3.17-1.15-1.37-.45-2.8-.89-4.23-1.24C36.68,9.44,37.57,8.84,38.26,9.05Zm5.61,117.54-.23,0-.06-.19ZM43.34,13.52l-.34.16a1.42,1.42,0,0,0,.12-.25Zm-8.48-2.59.21.05a61.63,61.63,0,0,1,6,1.73l1.23.42a2.58,2.58,0,0,1-.59.86l.14.26h0L41.74,14l-.05,0a1.19,1.19,0,0,1-1.17.3A59.56,59.56,0,0,0,33,12.38C33.33,11.45,34.17,10.75,34.86,10.93ZM40.73,125l-.26,0,0-.19ZM40.19,15.11l-.32.18a2.56,2.56,0,0,0,.11-.24ZM31.57,13a65.89,65.89,0,0,1,7.6,1.8c-.33.89-1.09,1.46-1.75,1.28a63,63,0,0,0-7.62-1.52C30.08,13.61,30.89,12.9,31.57,13Zm6.06,110.29-.22,0,0-.19Zm-.49-106.4a3.28,3.28,0,0,1-.31.2,1.84,1.84,0,0,0,.09-.25Zm-11.73.83h.21c2.1.1,4.21.37,6.22.67l-.73-1c-1.43-.22-2.88-.37-4.38-.51.23-.95,1-1.71,1.69-1.63l1.21.14a60.64,60.64,0,0,1,6.47,1.21c-.28.91-1,1.5-1.67,1.39-1.09-.22-2.19-.42-3.32-.6l.73,1,1.3.23a2.27,2.27,0,0,1-.45.92h0l0,0a1.26,1.26,0,0,1-1.09.52,62.88,62.88,0,0,0-7.76-.68C24,18.46,24.71,17.69,25.41,17.72Zm9.27,103.65h-.24l0-.2ZM34.2,18.84l-.31.22c0-.09.07-.17.09-.27ZM31.82,119.28a1.77,1.77,0,0,0-.23,0l0-.2Zm-.45-98.34-.29.23a2.5,2.5,0,0,0,.07-.26ZM17.22,26l.22,0c2.13-.21,4.18-.36,6.25-.36H25a2.47,2.47,0,0,1-.27,1l0,.05a1.2,1.2,0,0,1-1,.67A64.18,64.18,0,0,0,16,28C16,27,16.51,26.06,17.22,26ZM24,112.15a1.11,1.11,0,0,0-.25-.05v-.2Zm-4.67-5.74.18.26-.22-.07ZM19,33.7l.22,0c-.07.1-.14.21-.22.31A1.31,1.31,0,0,0,19,33.7ZM13.91,97.35a2.44,2.44,0,0,1,.14.28.81.81,0,0,0-.21-.1Zm-.12-54.59c0,.11-.1.22-.16.33a2.56,2.56,0,0,0-.05-.27ZM12.44,94.13a3.09,3.09,0,0,0,.14.32l-.22-.13ZM12.35,46c0,.11-.09.22-.13.33,0-.09,0-.17-.07-.25Zm-8,3.77a62.53,62.53,0,0,1,7-3.37,1.68,1.68,0,0,1-.56,2.1,61.11,61.11,0,0,0-6.88,3.59A1.92,1.92,0,0,1,4.33,49.74Zm6.84,41.1c0,.1.07.21.1.31L11.08,91ZM11,49.6a2.34,2.34,0,0,0-.09-.24l.2-.09C11.05,49.38,11,49.49,11,49.6ZM3.3,53.48l1-.64a62.82,62.82,0,0,1,5.8-3.12,1.74,1.74,0,0,1-.43,2.13c-1,.5-2,1-3,1.61C5.49,54.2,4.26,55,3,55.82A1.92,1.92,0,0,1,3.3,53.48Zm6.79,34,.09.32L10,87.65ZM9.93,53c0-.08-.06-.15-.1-.23l.19-.09ZM2.49,57.28l.18-.12a62.33,62.33,0,0,1,5.25-3.39l1.16-.64a2.29,2.29,0,0,1,.22,1h0v.06a1.24,1.24,0,0,1-.54,1.09,63.43,63.43,0,0,0-6.45,4.35A1.9,1.9,0,0,1,2.49,57.28ZM9.2,84.06c0,.12.05.23.07.34a1.62,1.62,0,0,0-.19-.17ZM9.06,56.38a2.14,2.14,0,0,0-.1-.22l.18-.11C9.11,56.16,9.09,56.27,9.06,56.38Zm-.78,3.25.17-.11-.06.32,0-.07h0A1,1,0,0,1,8.28,59.63Zm.22,21c0,.11,0,.22.05.32-.06-.05-.11-.11-.18-.16ZM6.58,59.77l0,0c-.71.5-1.41,1-2.1,1.57l-.52.41c-.69.55-1.37,1.1-2.06,1.69a1.87,1.87,0,0,1,0-2.36c.54-.44,1.08-.87,1.64-1.29l.32-.24c.58-.44,1.18-.86,1.77-1.27l.56-.39c.68-.45,1.36-.9,2-1.33.42.83.4,1.8-.17,2.16S7.07,59.42,6.58,59.77ZM8,77.44a1.29,1.29,0,0,0-.16-.17L8,77.12C8,77.22,8,77.33,8,77.44ZM8,63c0,.11,0,.22,0,.33a2.39,2.39,0,0,0-.13-.21ZM7.71,73.92a1.29,1.29,0,0,0-.16-.17l.13-.15Zm0-7.39c0,.11,0,.22,0,.33l-.14-.19Zm-.09,3.53c0,.11,0,.22,0,.33l-.15-.18ZM1.38,72.74a60.77,60.77,0,0,1,5.49-5.51,1.64,1.64,0,0,1,.18,2.16,61.21,61.21,0,0,0-5.29,5.68A1.86,1.86,0,0,1,1.38,72.74Zm.26,3.88.77-1A60.67,60.67,0,0,1,6.82,70.8,1.65,1.65,0,0,1,7.12,73c-.77.81-1.49,1.64-2.23,2.51h0c-1,1.11-1.84,2.26-2.73,3.46C1.46,78.22,1.18,77.18,1.64,76.62Zm.47,3.85.13-.17c1.28-1.74,2.48-3.38,3.87-4.94l.87-1a2.22,2.22,0,0,1,.55.86l.28,0-.27,0,0,.06a1.24,1.24,0,0,1-.18,1.21,64.88,64.88,0,0,0-4.62,6.23A1.94,1.94,0,0,1,2.11,80.47Zm.71,3.82a61.93,61.93,0,0,1,4.51-6.36A1.72,1.72,0,0,1,7.87,80a63.32,63.32,0,0,0-4.28,6.49A1.93,1.93,0,0,1,2.82,84.29Zm1.8,6a1.91,1.91,0,0,1-.87-2.18L4.33,87a61.76,61.76,0,0,1,3.54-5.55,1.74,1.74,0,0,1,.67,2.07c-.61.91-1.22,1.87-1.81,2.85h0C6,87.62,5.31,88.92,4.62,90.25Zm1.27,3.66a1.61,1.61,0,0,1-.3-.21l-.06,0a1.8,1.8,0,0,1-.2-.19l-.07-.09-.14-.17-.07-.13A.83.83,0,0,1,5,92.91a.69.69,0,0,1,0-.13,1.66,1.66,0,0,1-.06-.16l0-.13a.88.88,0,0,1,0-.16.48.48,0,0,1,0-.12.76.76,0,0,1,0-.15.36.36,0,0,1,0-.11c0-.06,0-.12,0-.17l.1-.19a60.28,60.28,0,0,1,2.94-5.52L8.62,85a2.54,2.54,0,0,1,.68.75h0l0,.05A1.23,1.23,0,0,1,9.41,87c-.42.69-.82,1.41-1.2,2.13-.11.2-.22.4-.32.61-.31.58-.6,1.17-.89,1.78,0,.11-.11.21-.17.33h0L6.75,92C6.46,92.64,6.17,93.27,5.89,93.91Zm.33,1.52c.49-1.22,1-2.43,1.58-3.6l.09-.18c.53-1.11,1.09-2.2,1.67-3.25.78.52,1.22,1.37.9,2s-.49,1-.73,1.46h0a1.11,1.11,0,0,0-.07.16c-.37.77-.72,1.56-1.06,2.36-.09.2-.17.4-.25.6-.35.84-.68,1.69-1,2.55A1.85,1.85,0,0,1,6.22,95.43ZM9,101c-.9-.42-1.5-1.32-1.25-2l.41-1.15c.35-1,.76-2.08,1.19-3.09l.13-.3c.17-.41.34-.8.52-1.2l.21-.45c.15-.34.31-.69.47-1l.19.13A1,1,0,0,1,11,92a.69.69,0,0,1,.13.11l.12.1.1.12.1.12.08.12.08.13,0,.12.06.14s0,.08,0,.12l0,.14s0,.09,0,.13v.12a.62.62,0,0,1-.07.23c-.47,1-.86,2.06-1.27,3.12l.79-.36-.79.36C9.9,98.19,9.43,99.58,9,101Zm1.85,3.39c-.9-.37-1.56-1.24-1.37-1.92l.06-.21c.61-2.06,1.22-4,2-6h0L12,95.1a2.46,2.46,0,0,1,.82.63h0l0,0a1.22,1.22,0,0,1,.24,1.2A62.84,62.84,0,0,0,10.87,104.39Zm3.9-4.26a62.12,62.12,0,0,0-1.85,7.55c-.93-.32-1.61-1.16-1.47-1.85a61.26,61.26,0,0,1,2.11-7.5A1.68,1.68,0,0,1,14.77,100.13Zm.48-60.19,0-.26.21,0Zm.25,60.71.06-.19c0,.1.11.19.16.28Zm-.2-61.86a61.78,61.78,0,0,0-7.41,2.37,1.86,1.86,0,0,1,.81-2.22,62.23,62.23,0,0,1,7.48-2.13C16.31,37.73,16,38.63,15.3,38.79Zm-5.68-1.1a2.46,2.46,0,0,1,0-.54.31.31,0,0,0,0-.1,1.86,1.86,0,0,1,.09-.47.19.19,0,0,1,0-.08,2.32,2.32,0,0,1,.18-.39s0,0,0,0a1.31,1.31,0,0,1,.27-.3l.07-.06a.94.94,0,0,1,.31-.17l.21-.06h0c2-.61,4.11-1,6.08-1.43l1.31-.21a2.24,2.24,0,0,1-.12,1l.24.16L18,34.84l0,.06a2.92,2.92,0,0,1-.14.31l-.06.08a1,1,0,0,1-.13.16.27.27,0,0,1-.08.07.83.83,0,0,1-.15.11l-.1,0a.8.8,0,0,1-.2.07A62.21,62.21,0,0,0,9.62,37.69Zm7.94,66.09-.23-.1.05-.19ZM17.24,36.6l-.19.29c0-.09,0-.17,0-.25Zm.31,77.27c-1-.18-1.72-1-1.65-1.67V112h0c.18-2.08.55-4.19.92-6.18l.29-1.28a2.43,2.43,0,0,1,.9.48l.22-.15L18,105l0,0a1.15,1.15,0,0,1,.46,1.11A63.66,63.66,0,0,0,17.55,113.87ZM20.68,109a60.06,60.06,0,0,0-.55,7.76c-1-.13-1.79-.86-1.76-1.57a62.37,62.37,0,0,1,.81-7.74C20.08,107.67,20.78,108.33,20.68,109Zm-7-77.91A1.93,1.93,0,0,1,14.81,29a63.62,63.62,0,0,1,7.75-.83c0,.95-.54,1.74-1.22,1.79A63.78,63.78,0,0,0,13.65,31.09Zm8,78.37-.22,0,0-.19Zm-.35-78.61-.23.29a1.13,1.13,0,0,0,0-.26Zm1.46,84.25c-.06,1.46,0,2.92.05,4.4-1-.1-1.85-.73-1.85-1.46v-1.22c0-2.21.16-4.44.37-6.56.94.16,1.64.8,1.59,1.48C22.86,112.87,22.84,114,22.81,115.1Zm.59-86.67a2.26,2.26,0,0,0,0-.26h.22Zm.4,92.31v-.22h0a60,60,0,0,1-.11-6.27l.06-1.31a2.46,2.46,0,0,1,1,.32h0l.05,0a1.23,1.23,0,0,1,.63,1,65.84,65.84,0,0,0,.32,7.76C24.75,122.05,23.86,121.43,23.8,120.74Zm2-94.87c0-.09,0-.17,0-.26h.22A3.07,3.07,0,0,0,25.81,25.87Zm.37-1.09c-1.13-.06-2.25-.06-3.37,0-1.46,0-2.94.1-4.41.24.05-1,.67-1.87,1.4-1.89L21,23a62.05,62.05,0,0,1,6.56.09C27.46,24.05,26.85,24.8,26.18,24.78Zm.31,89.87-.23,0v-.2A2.39,2.39,0,0,0,26.49,114.65Zm1.83,9.82-.13,0-.29-.08-.12-.05a1.63,1.63,0,0,1-.35-.17h0a1.6,1.6,0,0,1-.28-.22l-.05-.06a1.74,1.74,0,0,1-.18-.22s0,0,0-.08a.88.88,0,0,1-.1-.3,60.8,60.8,0,0,1-.5-7.78,1.72,1.72,0,0,1,1.74,1.3c0,1.1.11,2.2.21,3.32,0,.1,0,.2,0,.3q.15,1.59.39,3.18l0,.3h0c0,.2.07.41.1.62A2,2,0,0,1,28.32,124.47Zm.06-101a2,2,0,0,0,.05-.26l.23,0ZM21,22.14c.09-1,.79-1.81,1.5-1.81a60.06,60.06,0,0,1,7.77.47c-.2.9-.82,1.64-1.5,1.57A60.52,60.52,0,0,0,21,22.14Zm7.82,94.69.24.21-.23,0Zm1,8.78-.22-1.19c-.07-.44-.13-.87-.19-1.3,0-.16,0-.32-.07-.48l-.12-1c0-.22-.06-.44-.08-.66s-.07-.64-.1-1l-.06-.6c-.05-.52-.08-1-.1-1.57.92,0,1.73.53,1.81,1.19.11,1.1.22,2.24.39,3.35h0c.07.48.15,1,.24,1.45h0c0,.08,0,.16,0,.24.16.87.32,1.75.51,2.63A1.87,1.87,0,0,1,29.85,125.61Zm3.21,2.18-.05-.21c-.24-.93-.43-1.89-.61-2.83l-.09-.49c-.17-1-.33-1.9-.47-2.82l-.16-1.31a3,3,0,0,1,1,.16l.16-.22-.15.22,0,0a1.19,1.19,0,0,1,.81.9c.11.81.25,1.61.41,2.41a2.51,2.51,0,0,0,0,.27l.09.4c.11.54.23,1.09.35,1.63,0,.23.1.45.16.67.18.74.36,1.48.57,2.23A1.85,1.85,0,0,1,33.06,127.79Zm3.33,2c-.27-.88-.51-1.76-.74-2.64l-.15-.62c-.21-.86-.41-1.71-.59-2.56-.12-.59-.23-1.17-.34-1.75,1-.1,1.82.31,2,1,0,.23.09.46.14.69h0c.06.23.11.47.17.7s.1.46.16.69.19.77.29,1.15c.06.22.11.44.18.66.11.42.23.83.36,1.24,0,.19.1.38.16.57.19.59.38,1.19.59,1.79A1.85,1.85,0,0,1,36.39,129.79Zm7,3.43-.09-.2a61.82,61.82,0,0,1-2.18-5.88l-.56,1.1c.44,1.39,1,2.75,1.52,4.13-1,.23-2-.08-2.23-.77l-.4-1.15h0a58.81,58.81,0,0,1-1.83-6.3,1.64,1.64,0,0,1,2,.86c.28,1.09.62,2.13,1,3.22l.56-1.1-.39-1.25a2.57,2.57,0,0,1,1,0l.13-.24h0l-.13.24h.06a1.23,1.23,0,0,1,.94.78,61.91,61.91,0,0,0,2.9,7.2A1.93,1.93,0,0,1,43.37,133.22Zm5.92,1.91a1.91,1.91,0,0,1-2.3-.52,61.44,61.44,0,0,1-3.07-7.16,1.69,1.69,0,0,1,2.07.64A62.91,62.91,0,0,0,49.29,135.13ZM46.22,12.25a1.88,1.88,0,0,0,.14-.24l.22.1Zm.6,115.6.31.12-.23.07ZM47,11.37a59.23,59.23,0,0,0-7.25-2.81,1.87,1.87,0,0,1,2-1.22,62.21,62.21,0,0,1,7.17,3C48.43,11.17,47.6,11.65,47,11.37ZM43.25,6.94a1.9,1.9,0,0,1,2.09-1.09l.19.08c1.95.81,3.85,1.76,5.64,2.71h0l1.15.65a2.46,2.46,0,0,1-.73.71l.09.29h0L51.59,10l-.05,0a1.23,1.23,0,0,1-1.2.12A63.66,63.66,0,0,0,43.25,6.94ZM49.53,11c0-.08.11-.15.15-.23l.21.11Zm.69,118.24-.09-.19.33.12A2.17,2.17,0,0,0,50.22,129.25Zm4.23,7.53-.12-.18h0c-1.17-1.74-2.21-3.61-3.17-5.4L50.59,130a3,3,0,0,1,1-.19h.07a1.21,1.21,0,0,1,1.06.58A60,60,0,0,0,56.79,137,1.84,1.84,0,0,1,54.45,136.78Zm3.81.76A60.29,60.29,0,0,1,54,131c.84-.41,1.8-.33,2.14.25a58.63,58.63,0,0,0,4.45,6.39A1.84,1.84,0,0,1,58.26,137.54Zm7.71.89-.14-.16a61.72,61.72,0,0,1-4-4.8l-.16,1.22c.89,1.16,1.83,2.3,2.82,3.39a1.85,1.85,0,0,1-2.36,0l-.76-.94h0a58.93,58.93,0,0,1-3.84-5.32,1.65,1.65,0,0,1,2.16.14c.63.94,1.3,1.81,2,2.71l.16-1.22-.78-1a2.33,2.33,0,0,1,1-.37l0-.27h0l0,.27.07,0a1.24,1.24,0,0,1,1.14.42,60.37,60.37,0,0,0,5.13,5.82C67.53,138.85,66.45,139,66,138.43Zm3.88.13a67.28,67.28,0,0,1-5.28-5.75,1.67,1.67,0,0,1,2.16-.08,69.32,69.32,0,0,0,5.46,5.53A1.94,1.94,0,0,1,69.85,138.56Zm3.88-.11-.91-.81h0A60.23,60.23,0,0,1,68.14,133a1.71,1.71,0,0,1,2.16-.2c.78.78,1.58,1.57,2.42,2.35,1.06,1,2.17,1.92,3.34,2.87A1.94,1.94,0,0,1,73.73,138.45Zm3.87-.33-.17-.13h0a61.5,61.5,0,0,1-4.78-4.06l-.94-.92a2.41,2.41,0,0,1,.88-.51v0l.06,0a1.29,1.29,0,0,1,1.2.21,64.12,64.12,0,0,0,6,4.9A1.93,1.93,0,0,1,77.6,138.12Zm6.12-1.19a1.92,1.92,0,0,1-2.27.64,58.57,58.57,0,0,1-6.16-4.76,1.72,1.72,0,0,1,2.12-.45A64.1,64.1,0,0,0,83.72,136.93ZM77.35,8l.25-.14.15.19ZM78,131.75l.34,0c0,.06-.12.11-.17.17ZM78.46,7.62a61.24,61.24,0,0,0-5-6,1.92,1.92,0,0,1,2.36-.06A60.78,60.78,0,0,1,80.63,7.7,1.73,1.73,0,0,1,78.46,7.62Zm2.38.93.26-.13.13.2Zm.82,122.78-.17-.13.36-.06C81.79,131.21,81.72,131.26,81.66,131.33ZM82,8.19a59.49,59.49,0,0,0-4.62-6.25A1.92,1.92,0,0,1,79.71,2l.13.17c1.31,1.69,2.51,3.39,3.61,5.12l.25-1.2c-.77-1.25-1.63-2.4-2.52-3.61a1.91,1.91,0,0,1,2.36.18l.69,1a61.89,61.89,0,0,1,3.36,5.66A1.69,1.69,0,0,1,85.45,9c-.55-1-1.14-1.91-1.75-2.88l-.25,1.2.68,1.13a2.62,2.62,0,0,1-1,.27l-.06.3h0l.06-.3h-.06A1.27,1.27,0,0,1,82,8.19Zm3.3,122.19c0,.07-.11.13-.15.2l-.19-.12Zm-.59-121-.38-.09.27-.12ZM89,135.85l-.19-.1h0a56,56,0,0,1-5.38-3.18l-1.09-.73a3.06,3.06,0,0,1,.78-.67l0-.27,0,.27,0,0a1.2,1.2,0,0,1,1.22,0,60.09,60.09,0,0,0,6.78,3.8A1.85,1.85,0,0,1,89,135.85Zm3.71-1.18A63.28,63.28,0,0,1,85.84,131a1.68,1.68,0,0,1,2-.82,60.23,60.23,0,0,0,7,3.42C94.33,134.48,93.37,135,92.73,134.67Zm3.62-1.39-1.13-.45a62.44,62.44,0,0,1-6-2.8c.5-.81,1.36-1.23,2-.92,1,.52,2,.95,3.06,1.4,1.35.61,2.7,1.11,4.11,1.61C97.94,133,97,133.55,96.35,133.28Zm3.54-1.59-.2-.07a60.22,60.22,0,0,1-5.86-2.25l-1.19-.54a2.41,2.41,0,0,1,.66-.78h0l.06,0a1.25,1.25,0,0,1,1.2-.19,61.31,61.31,0,0,0,7.32,2.58C101.47,131.3,100.56,131.89,99.89,131.69Zm3.45-1.81a61.76,61.76,0,0,1-7.41-2.42,1.71,1.71,0,0,1,1.85-1.13,64.07,64.07,0,0,0,7.47,2.17C104.89,129.42,104,130.06,103.34,129.88Zm6.55-4.16-.21,0c-2.09-.29-4.16-.72-6.15-1.2l.65,1.05c1.4.31,2.86.63,4.32.87-.29,1-1.14,1.61-1.83,1.47l-1.18-.24a57.25,57.25,0,0,1-6.34-1.74c.36-.86,1.13-1.43,1.77-1.25,1.07.31,2.17.63,3.26.88l-.65-1-1.26-.33a3.31,3.31,0,0,1,.15-.33,2.44,2.44,0,0,1,.36-.56l0,0a1.2,1.2,0,0,1,1.13-.41c.83.2,1.66.38,2.5.54l.69.13c.81.15,1.63.28,2.45.4h.07c.65.08,1.3.17,2,.24C111.4,125.11,110.59,125.82,109.89,125.72Zm3.09-2.35a67.12,67.12,0,0,1-7.69-1.12c.24-.93.95-1.58,1.61-1.45a59,59,0,0,0,7.73.88C114.43,122.65,113.7,123.44,113,123.37Zm3-2.52-1.22,0a62.5,62.5,0,0,1-6.53-.65c.19-.93.86-1.61,1.54-1.52,1.11.14,2.21.22,3.34.3,1.47.12,2.92.14,4.42.14C117.33,120,116.65,120.88,115.94,120.85Zm2.81-2.68h-.22a62,62,0,0,1-6.27-.16l-1.3-.11a2.19,2.19,0,0,1,.37-1h0l0-.05a1.26,1.26,0,0,1,1.07-.58,67.09,67.09,0,0,0,7.77,0C120.1,117.29,119.45,118.14,118.75,118.17Zm2.64-2.84a61.57,61.57,0,0,1-7.78.17c.1-.93.7-1.67,1.36-1.68a64.3,64.3,0,0,0,7.77-.42C122.71,114.37,122.09,115.26,121.39,115.33Zm2.49-3-1.2.16a61.32,61.32,0,0,1-6.56.46c.06-.93.58-1.73,1.26-1.77,1.1-.06,2.26-.11,3.36-.25,1.43-.16,2.93-.34,4.37-.61A1.86,1.86,0,0,1,123.88,112.34Zm2.32-3.12-.22,0h0a61,61,0,0,1-6.18.91h0l-1.3.11a2.79,2.79,0,0,1,.19-1h0l0-.06a1.17,1.17,0,0,1,.94-.76,59.67,59.67,0,0,0,7.67-1.3A1.84,1.84,0,0,1,126.2,109.22Zm2.14-3.24a62.73,62.73,0,0,1-7.64,1.49c-.08-1,.38-1.79,1-1.89a62.58,62.58,0,0,0,7.58-1.74C129.46,104.82,129,105.82,128.34,106Zm2-3.35-1.18.35a58.07,58.07,0,0,1-6.38,1.56,1.64,1.64,0,0,1,1-2c1.07-.25,2.15-.52,3.25-.82h0c1.44-.38,2.78-.85,4.21-1.34A2,2,0,0,1,130.3,102.63ZM132,99.16l-.2.08h0c-2,.75-4,1.41-6,1.94l.53.3-.54-.3-1.27.33a2.22,2.22,0,0,1,0-1l-.26-.15h0l.25.14,0,0a1.29,1.29,0,0,1,.81-.91,63.47,63.47,0,0,0,7.33-2.58A1.92,1.92,0,0,1,132,99.16Zm1.56-3.56a59.92,59.92,0,0,1-7.29,2.75,1.73,1.73,0,0,1,.72-2,62.9,62.9,0,0,0,7.19-3A1.92,1.92,0,0,1,133.6,95.6Zm2-4.75s0,.06,0,.08a1.73,1.73,0,0,1-.15.47l0,.07a1.13,1.13,0,0,1-.27.34.59.59,0,0,1-.18.13l-1.08.57a62,62,0,0,1-6,2.61c-.24-.89,0-1.83.61-2.08l1.43-.6.42-.19c.31-.14.62-.27.92-.42h0l.31-.15h0c1.29-.63,2.65-1.29,3.92-2a2,2,0,0,1,.15.59.17.17,0,0,1,0,.07A2,2,0,0,1,135.59,90.85Zm.49-2.61-.18.1a57.79,57.79,0,0,1-5.54,2.93l-1.19.54a2.56,2.56,0,0,1-.15-1l-.29-.1h0l.28.1v-.06a1.18,1.18,0,0,1,.63-1,59.21,59.21,0,0,0,6.79-3.79A1.85,1.85,0,0,1,136.08,88.24Zm1.15-6.12a1.86,1.86,0,0,1-.21,2.35,66,66,0,0,1-6.7,4,1.66,1.66,0,0,1,.35-2.14A60.7,60.7,0,0,0,137.23,82.12Zm-6.26-25a2.11,2.11,0,0,0,.23.19l-.15.21C131,57.4,131,57.27,131,57.14Zm.13,24.94.06-.38a2,2,0,0,0,.13.25Zm7.13-5.28-.16.13c-1.68,1.37-3.24,2.66-5,3.82h0l-1.09.74a2.51,2.51,0,0,1-.32-1l-.3-.05h0l.3.05v-.06a1.27,1.27,0,0,1,.46-1.12,65,65,0,0,0,6-4.89A1.92,1.92,0,0,1,138.23,76.8Z"/><path class="cls-4" d="M77,27.87c-.69-2.43-3.27-7.85-6.6-7.92s-8.31,8.26-6.81,13.9a7.29,7.29,0,0,0,6,5.76l-.19,3.51h0c-2.19.66-.07,1.33-.07,1.33h0L67.55,70.84s2.54,4,5.83,0l-1.75-26.4c1.88-.7.09-1.26-.07-1.31l-.18-3.53C78.83,38.62,77.68,30.12,77,27.87ZM68.33,38.06c-3.54-1.73-6.46-8.89,1-16.53V36.61a5.74,5.74,0,0,0,5.76,0S71.88,39.8,68.33,38.06Z"/><path class="cls-5" d="M83.69,43a1.94,1.94,0,0,1,.3-.13.72.72,0,0,1,.36,0,.88.88,0,0,1,.39.12,1.26,1.26,0,0,1,.35.34,1.59,1.59,0,0,1,.16.37,1.23,1.23,0,0,1,0,.21,2.29,2.29,0,0,0-.32-.43.84.84,0,0,0-.4-.28.6.6,0,0,0-.77.5,1.41,1.41,0,0,0,.16.8,4.47,4.47,0,0,0,.59.95,3.42,3.42,0,0,0,.8.69,8.13,8.13,0,0,0,.9.39,6.19,6.19,0,0,1,1,.48,5.86,5.86,0,0,1,.84.59,7.05,7.05,0,0,1,.55.57,1,1,0,0,0,.41-.87,5.07,5.07,0,0,0-.18-1.3c-.14-.71-.41-1.79-.7-3s-.61-2.45-.83-3.27-.37-1.25-.49-1.64a7.7,7.7,0,0,0-.41-1.1,2.51,2.51,0,0,0-.53-.83c-.16-.09-.24.08-.23.37a13,13,0,0,0,.31,1.4c.15.7.37,1.69.58,2.65s.39,2,.5,2.68.14,1.19.19,1.67c-.15-.55-.3-1.11-.5-1.83s-.46-1.61-.73-2.67-.56-2.3-.75-3.08S85.06,36.25,85,36a5.07,5.07,0,0,1,0-.64A2.38,2.38,0,0,1,85.1,35c-.12-.29-.25-.58-.46-1s-.5-1.08-.75-1.54a10.11,10.11,0,0,0-.61-1,2.63,2.63,0,0,0-.43-.47c-.12-.07-.22-.06-.27.11a3.46,3.46,0,0,0,.1,1.38c.14.85.43,2.27.69,3.48s.49,2.23.74,3.31.49,2.29.75,3.46c-.11-.3-.22-.58-.46-1.3s-.6-1.87-.85-2.77-.41-1.49-.57-2.13-.34-1.26-.5-1.92-.25-1.33-.34-1.94S82,31.42,82,31.05a4.24,4.24,0,0,1,0-.69c-.11-.22-.23-.44-.33-.61a.74.74,0,0,0-.32-.35.27.27,0,0,0-.3.19,1.67,1.67,0,0,0,0,.82c0,.44.14,1.09.42,2.47s.75,3.52,1.15,5.32Z"/><path class="cls-5" d="M78.8,57.88c.34.46.72.94,1.1,1.45s.7,1,1,1.44a2.65,2.65,0,0,0,.94.91,1.3,1.3,0,0,0,1.26-.32,10.84,10.84,0,0,0,1.8-1.9,20,20,0,0,0,1.71-2.66,19,19,0,0,0,1.11-2.66,25.39,25.39,0,0,0,.72-2.59,4.28,4.28,0,0,0,0-1.7,1.29,1.29,0,0,0-.64-.83,3.48,3.48,0,0,0-1.31-.41,3.31,3.31,0,0,0-1.76.33,9.15,9.15,0,0,0-2.23,1.54,19.77,19.77,0,0,0-2,2.12C80,53.34,79.44,54,79,54.7a19,19,0,0,0-1.11,1.87Z"/><path class="cls-6" d="M78.8,57.88c.34.46.72.94,1.1,1.45s.7,1,1,1.44a2.65,2.65,0,0,0,.94.91,1.3,1.3,0,0,0,1.26-.32,10.84,10.84,0,0,0,1.8-1.9,20,20,0,0,0,1.71-2.66,19,19,0,0,0,1.11-2.66,25.39,25.39,0,0,0,.72-2.59,4.28,4.28,0,0,0,0-1.7,1.29,1.29,0,0,0-.64-.83,3.48,3.48,0,0,0-1.31-.41,3.31,3.31,0,0,0-1.76.33,9.15,9.15,0,0,0-2.23,1.54,19.77,19.77,0,0,0-2,2.12C80,53.34,79.44,54,79,54.7a19,19,0,0,0-1.11,1.87Z"/><path class="cls-5" d="M69.35,67.19a3.87,3.87,0,0,0,1.37.76,6.09,6.09,0,0,0,2.1.26,10.6,10.6,0,0,0,2.41-.39,12.32,12.32,0,0,0,2.42-1,9.12,9.12,0,0,0,1.91-1.35,7.39,7.39,0,0,0,1.28-1.56,2.26,2.26,0,0,0,.38-1.43A3.25,3.25,0,0,0,80.49,61a16.74,16.74,0,0,0-1.6-2.1,7.35,7.35,0,0,0-2-1.6,5.42,5.42,0,0,0-2.06-.67,6.17,6.17,0,0,0-2.1,0,7.2,7.2,0,0,0-1.83.71,5.69,5.69,0,0,0-1,.71c0,.84,0,1.7,0,2.64a25.64,25.64,0,0,1-.32,3c-.15,1-.35,1.89-.44,2.45S69.07,66.93,69.35,67.19Z"/><path class="cls-6" d="M69.35,67.19a3.87,3.87,0,0,0,1.37.76,6.09,6.09,0,0,0,2.1.26,10.6,10.6,0,0,0,2.41-.39,12.32,12.32,0,0,0,2.42-1,9.12,9.12,0,0,0,1.91-1.35,7.39,7.39,0,0,0,1.28-1.56,2.26,2.26,0,0,0,.38-1.43A3.25,3.25,0,0,0,80.49,61a16.74,16.74,0,0,0-1.6-2.1,7.35,7.35,0,0,0-2-1.6,5.42,5.42,0,0,0-2.06-.67,6.17,6.17,0,0,0-2.1,0,7.2,7.2,0,0,0-1.83.71,5.69,5.69,0,0,0-1,.71c0,.84,0,1.7,0,2.64a25.64,25.64,0,0,1-.32,3c-.15,1-.35,1.89-.44,2.45S69.07,66.93,69.35,67.19Z"/><path class="cls-5" d="M56.28,64.27a3.71,3.71,0,0,0,.6-.32,9.34,9.34,0,0,0,1.27-.9A16.77,16.77,0,0,0,60,61.2c.68-.79,1.4-1.75,2-2.46a8,8,0,0,1,1.65-1.61,5.58,5.58,0,0,1,2-.9,2.44,2.44,0,0,1,1.67.24,2.55,2.55,0,0,1,1.12,1.13,4.91,4.91,0,0,1,.44,1.89A11.73,11.73,0,0,1,68.69,62a28.18,28.18,0,0,1-.61,2.86,4.6,4.6,0,0,1-1,1.9,4,4,0,0,1-1.85,1.18,6.17,6.17,0,0,1-2.65,0,12.34,12.34,0,0,1-2.79-.79,8.23,8.23,0,0,1-2-1.11A6.05,6.05,0,0,1,56.65,65,2.14,2.14,0,0,1,56.28,64.27Z"/><path class="cls-6" d="M56.28,64.27a3.71,3.71,0,0,0,.6-.32,9.34,9.34,0,0,0,1.27-.9A16.77,16.77,0,0,0,60,61.2c.68-.79,1.4-1.75,2-2.46a8,8,0,0,1,1.65-1.61,5.58,5.58,0,0,1,2-.9,2.44,2.44,0,0,1,1.67.24,2.55,2.55,0,0,1,1.12,1.13,4.91,4.91,0,0,1,.44,1.89A11.73,11.73,0,0,1,68.69,62a28.18,28.18,0,0,1-.61,2.86,4.6,4.6,0,0,1-1,1.9,4,4,0,0,1-1.85,1.18,6.17,6.17,0,0,1-2.65,0,12.34,12.34,0,0,1-2.79-.79,8.23,8.23,0,0,1-2-1.11A6.05,6.05,0,0,1,56.65,65,2.14,2.14,0,0,1,56.28,64.27Z"/><path class="cls-5" d="M51.53,60.6a11.06,11.06,0,0,0,1.33,1.49,5.32,5.32,0,0,0,1.66,1,2.5,2.5,0,0,0,1.78-.06,7.53,7.53,0,0,0,2.05-1.38,14.86,14.86,0,0,0,2-2.2,19.51,19.51,0,0,0,1.74-2.66,7.93,7.93,0,0,0,.81-2.23A5.74,5.74,0,0,0,63,52.86c-.06-.43-.16-.68-.41-.82a1.87,1.87,0,0,0-1.25,0,13.91,13.91,0,0,0-2.35.8c-.88.37-1.78.81-2.59,1.19s-1.54.69-2.24.94a8.76,8.76,0,0,1-2,.47,4.64,4.64,0,0,1-1.77-.12A6.14,6.14,0,0,1,49,54.6a10.9,10.9,0,0,0,.4,1.85,12.06,12.06,0,0,0,1,2.28A15.93,15.93,0,0,0,51.53,60.6Z"/><path class="cls-6" d="M51.53,60.6a11.06,11.06,0,0,0,1.33,1.49,5.32,5.32,0,0,0,1.66,1,2.5,2.5,0,0,0,1.78-.06,7.53,7.53,0,0,0,2.05-1.38,14.86,14.86,0,0,0,2-2.2,19.51,19.51,0,0,0,1.74-2.66,7.93,7.93,0,0,0,.81-2.23A5.74,5.74,0,0,0,63,52.86c-.06-.43-.16-.68-.41-.82a1.87,1.87,0,0,0-1.25,0,13.91,13.91,0,0,0-2.35.8c-.88.37-1.78.81-2.59,1.19s-1.54.69-2.24.94a8.76,8.76,0,0,1-2,.47,4.64,4.64,0,0,1-1.77-.12A6.14,6.14,0,0,1,49,54.6a10.9,10.9,0,0,0,.4,1.85,12.06,12.06,0,0,0,1,2.28A15.93,15.93,0,0,0,51.53,60.6Z"/><path class="cls-5" d="M49.54,42.1a27.78,27.78,0,0,0-.78,2.8,24.46,24.46,0,0,0-.48,3.19,10.76,10.76,0,0,0,0,2.56,7.51,7.51,0,0,0,.62,2.07A3.86,3.86,0,0,0,50,54a3.27,3.27,0,0,0,1.51.6,5.09,5.09,0,0,0,2-.16,15.45,15.45,0,0,0,2.26-.93c.76-.36,1.52-.76,2.25-1.14s1.45-.76,2.07-1.17A7.2,7.2,0,0,0,61.57,50a6.56,6.56,0,0,0,.89-1.26,9.89,9.89,0,0,0,.42-1,12.09,12.09,0,0,1-1.38.15,8,8,0,0,1-2.21-.24A6.17,6.17,0,0,1,57,46.43a8.41,8.41,0,0,1-1.69-2c-.46-.74-.8-1.46-1.14-2.14s-.68-1.29-1-1.75a6.2,6.2,0,0,0-.8-1.05,1.66,1.66,0,0,0-.9-.59.94.94,0,0,0-.8.54,6.34,6.34,0,0,0-.64,1.21A14.65,14.65,0,0,0,49.54,42.1Z"/><path class="cls-6" d="M49.54,42.1a27.78,27.78,0,0,0-.78,2.8,24.46,24.46,0,0,0-.48,3.19,10.76,10.76,0,0,0,0,2.56,7.51,7.51,0,0,0,.62,2.07A3.86,3.86,0,0,0,50,54a3.27,3.27,0,0,0,1.51.6,5.09,5.09,0,0,0,2-.16,15.45,15.45,0,0,0,2.26-.93c.76-.36,1.52-.76,2.25-1.14s1.45-.76,2.07-1.17A7.2,7.2,0,0,0,61.57,50a6.56,6.56,0,0,0,.89-1.26,9.89,9.89,0,0,0,.42-1,12.09,12.09,0,0,1-1.38.15,8,8,0,0,1-2.21-.24A6.17,6.17,0,0,1,57,46.43a8.41,8.41,0,0,1-1.69-2c-.46-.74-.8-1.46-1.14-2.14s-.68-1.29-1-1.75a6.2,6.2,0,0,0-.8-1.05,1.66,1.66,0,0,0-.9-.59.94.94,0,0,0-.8.54,6.34,6.34,0,0,0-.64,1.21A14.65,14.65,0,0,0,49.54,42.1Z"/><path class="cls-5" d="M54.43,41.51a14.86,14.86,0,0,0,1.23,2,8,8,0,0,0,1.93,2,6.5,6.5,0,0,0,2.36.93,6.07,6.07,0,0,0,2.11.1A4.87,4.87,0,0,0,64,45.84a4.37,4.37,0,0,0,1.43-1.47,4.48,4.48,0,0,0,.6-1.83A2.89,2.89,0,0,0,65.73,41a3.22,3.22,0,0,0-1.14-1.25,13,13,0,0,0-2.37-1.18c-1-.42-2.14-.87-3.11-1.2a14.4,14.4,0,0,0-2.42-.71,6.33,6.33,0,0,0-1.78,0A4.77,4.77,0,0,0,53.7,37a1.69,1.69,0,0,0-.75.54,1,1,0,0,0-.19,1A8.72,8.72,0,0,0,53.58,40C53.9,40.46,54.11,40.93,54.43,41.51Z"/><path class="cls-6" d="M54.43,41.51a14.86,14.86,0,0,0,1.23,2,8,8,0,0,0,1.93,2,6.5,6.5,0,0,0,2.36.93,6.07,6.07,0,0,0,2.11.1A4.87,4.87,0,0,0,64,45.84a4.37,4.37,0,0,0,1.43-1.47,4.48,4.48,0,0,0,.6-1.83A2.89,2.89,0,0,0,65.73,41a3.22,3.22,0,0,0-1.14-1.25,13,13,0,0,0-2.37-1.18c-1-.42-2.14-.87-3.11-1.2a14.4,14.4,0,0,0-2.42-.71,6.33,6.33,0,0,0-1.78,0A4.77,4.77,0,0,0,53.7,37a1.69,1.69,0,0,0-.75.54,1,1,0,0,0-.19,1A8.72,8.72,0,0,0,53.58,40C53.9,40.46,54.11,40.93,54.43,41.51Z"/><path class="cls-7" d="M45.76,109a6.41,6.41,0,0,1-.19,1,2.33,2.33,0,0,1-.36.76,1.48,1.48,0,0,1-.59.49,2,2,0,0,1-.9.18,1.94,1.94,0,0,1-.7-.12,2.08,2.08,0,0,1-.57-.35,2.39,2.39,0,0,1-.45-.54,3.52,3.52,0,0,1-.31-.68,4.57,4.57,0,0,1-.2-.77,5.69,5.69,0,0,1-.06-.83,5.49,5.49,0,0,1,.13-1.22,3.93,3.93,0,0,1,.43-1.07,2.28,2.28,0,0,1,.72-.76,1.79,1.79,0,0,1,1-.3,1.92,1.92,0,0,1,.81.17,1.87,1.87,0,0,1,.64.47,2.51,2.51,0,0,1,.43.73,3,3,0,0,1,.17.93l-1.52.07c0-.09,0-.2,0-.33a2,2,0,0,0-.07-.35.87.87,0,0,0-.17-.3.31.31,0,0,0-.26-.12.44.44,0,0,0-.3.11.93.93,0,0,0-.2.3,2.09,2.09,0,0,0-.12.4,3.47,3.47,0,0,0-.06.45c0,.15,0,.29,0,.43v.66c0,.14,0,.28,0,.43s0,.29.07.44a1.57,1.57,0,0,0,.13.4.81.81,0,0,0,.21.29.5.5,0,0,0,.32.11.42.42,0,0,0,.2,0,.7.7,0,0,0,.16-.14.86.86,0,0,0,.11-.19,1.43,1.43,0,0,0,.08-.22,2.7,2.7,0,0,0,.09-.6Z"/><path class="cls-5" d="M51.87,108.31c0,.2,0,.42,0,.65a3.68,3.68,0,0,0,.13.63,1.79,1.79,0,0,0,.24.48.47.47,0,0,0,.37.19.5.5,0,0,0,.35-.15,1.84,1.84,0,0,0,.27-.34,1.67,1.67,0,0,0,.18-.35l.09-.2,1.21.46a3,3,0,0,1-.29.71A2.06,2.06,0,0,1,54,111a2,2,0,0,1-.6.36,2.1,2.1,0,0,1-2.55-.8,3.36,3.36,0,0,1-.44-1.05,6.13,6.13,0,0,1-.14-1.34,5.61,5.61,0,0,1,.15-1.34,3.14,3.14,0,0,1,.45-1,2.12,2.12,0,0,1,.75-.68,2.2,2.2,0,0,1,1-.25,2,2,0,0,1,1,.25,2.12,2.12,0,0,1,.72.68,3.35,3.35,0,0,1,.43,1,5.61,5.61,0,0,1,.15,1.34l0,.08s0,0,0,.07a.08.08,0,0,0,0,0Zm1.53-.92a3.65,3.65,0,0,0,0-.59,1.68,1.68,0,0,0-.13-.46A.88.88,0,0,0,53,106a.53.53,0,0,0-.35-.12.48.48,0,0,0-.29.12,1.23,1.23,0,0,0-.25.32,2,2,0,0,0-.17.46,2.73,2.73,0,0,0-.07.59Z"/><polygon class="cls-7" points="59.07 105.02 60.97 104.89 61.78 108.98 62.7 105.09 64.15 104.95 63.35 107.73 62.32 111.29 60.85 111.29 59.83 107.73 59.07 105.02"/><path class="cls-5" d="M68.65,105l1.6-.13v6.34l-1.6.13Zm1.61-2.62V104h-1.6v-1.6Z"/><path class="cls-7" d="M79.41,109a6.41,6.41,0,0,1-.19,1,2.14,2.14,0,0,1-.36.76,1.48,1.48,0,0,1-.59.49,2,2,0,0,1-.9.18,1.94,1.94,0,0,1-.7-.12,2.08,2.08,0,0,1-.57-.35,2.39,2.39,0,0,1-.45-.54,3.52,3.52,0,0,1-.31-.68,4.57,4.57,0,0,1-.2-.77,5.69,5.69,0,0,1-.06-.83,6.16,6.16,0,0,1,.13-1.22,3.93,3.93,0,0,1,.43-1.07,2.38,2.38,0,0,1,.72-.76,1.79,1.79,0,0,1,1-.3,1.92,1.92,0,0,1,.81.17,1.87,1.87,0,0,1,.64.47,2.51,2.51,0,0,1,.43.73,3,3,0,0,1,.17.93l-1.52.07c0-.09,0-.2,0-.33a2,2,0,0,0-.07-.35.87.87,0,0,0-.17-.3.31.31,0,0,0-.26-.12.44.44,0,0,0-.3.11.93.93,0,0,0-.2.3,2.09,2.09,0,0,0-.12.4c0,.15,0,.3-.06.45s0,.29,0,.43v.66a3.22,3.22,0,0,0,0,.43,3.32,3.32,0,0,0,.06.44,1.57,1.57,0,0,0,.13.4.81.81,0,0,0,.21.29.5.5,0,0,0,.32.11.42.42,0,0,0,.2,0,.7.7,0,0,0,.16-.14.86.86,0,0,0,.11-.19,1.43,1.43,0,0,0,.08-.22,2.7,2.7,0,0,0,.09-.6Z"/><path class="cls-7" d="M87.43,107a1,1,0,0,0-.16-.63.48.48,0,0,0-.39-.19,1.06,1.06,0,0,0-.47.12,6.16,6.16,0,0,0-.58.32v4.62l-1.6.13V103l1.6-.2v3a3.69,3.69,0,0,1,1-.69,2.15,2.15,0,0,1,.88-.22,1.26,1.26,0,0,1,1,.44,1.58,1.58,0,0,1,.29.51,2,2,0,0,1,.1.67v4.81l-1.6.13Z"/><path class="cls-5" d="M95.42,108.31c0,.2,0,.42,0,.65a3.68,3.68,0,0,0,.13.63,1.55,1.55,0,0,0,.25.48.44.44,0,0,0,.36.19.5.5,0,0,0,.35-.15,1.84,1.84,0,0,0,.27-.34,1.67,1.67,0,0,0,.18-.35l.09-.2,1.21.46a3,3,0,0,1-.29.71,2.06,2.06,0,0,1-.45.56,2,2,0,0,1-.6.36,2.13,2.13,0,0,1-.78.13,2.09,2.09,0,0,1-1-.24,2.12,2.12,0,0,1-.74-.69,3.36,3.36,0,0,1-.44-1.05,6.13,6.13,0,0,1-.14-1.34,5.61,5.61,0,0,1,.15-1.34,3.14,3.14,0,0,1,.45-1,2.12,2.12,0,0,1,.75-.68,2.2,2.2,0,0,1,1-.25,2,2,0,0,1,1,.25,2.12,2.12,0,0,1,.72.68,3.35,3.35,0,0,1,.43,1,5.61,5.61,0,0,1,.15,1.34l0,.08a.19.19,0,0,0,0,.07.08.08,0,0,0,0,0Zm1.53-.92a3.65,3.65,0,0,0,0-.59,1.68,1.68,0,0,0-.13-.46.88.88,0,0,0-.23-.32.53.53,0,0,0-.35-.12.48.48,0,0,0-.29.12,1.23,1.23,0,0,0-.25.32,2,2,0,0,0-.17.46,2.73,2.73,0,0,0-.07.59Z"/><path class="cls-4" d="M102,83.1a34,34,0,0,1-1.45,5.61l1.91-.19a26.92,26.92,0,0,0,2.49-5.6Z"/><path class="cls-8" d="M51.26,81.26a8.47,8.47,0,1,1-8.47,8.47A8.49,8.49,0,0,1,51.26,81.26Zm0,15.68a7.21,7.21,0,1,0-7.21-7.21A7.25,7.25,0,0,0,51.26,96.94Zm0-14.13a6.92,6.92,0,1,1-6.92,6.92A6.92,6.92,0,0,1,51.26,82.81Zm0,12.57a5.65,5.65,0,1,0-5.65-5.65A5.64,5.64,0,0,0,51.26,95.38Z"/><path class="cls-8" d="M80.71,83.15H77.35L71,94.75l-6.4-11.6H61.18V81.89h4.1l5.65,10.25,5.68-10.25h4.1ZM61.18,84.71V83.44h3.14V96.65H61.18V95.38h1.87V84.71ZM67.75,98.2H61.18V96.94h6.57Zm0-1.55H64.61V83.86l6.21,11.25-1.13.6-3.82-7v6.63h1.88Zm3.32-1.54,6.21-11.25V96.65H74.15V95.38H76V88.77l-3.85,6.94Zm3.08,1.83h6.56V98.2H74.15Zm6.56-.29H77.57V83.44h3.14v1.27H78.83V95.38h1.88Z"/><path class="cls-8" d="M41.31,83.15H38l-6.4,11.6-6.4-11.6H21.79V81.89h4.09l5.65,10.25,5.69-10.25h4.09ZM21.79,84.71V83.44h3.13V96.65H21.79V95.38h1.86V84.71ZM28.35,98.2H21.79V96.94h6.56Zm0-1.55H25.22V83.86l6.21,11.25-1.13.6-3.83-7v6.63h1.88Zm3.33-1.54,6.21-11.25V96.65H34.75V95.38h1.86V88.77l-3.85,6.94Zm3.07,1.83h6.56V98.2H34.75Zm6.56-.29H38.18V83.44h3.13v1.27H39.43V95.38h1.88Z"/><path class="cls-8" d="M91.3,81.72l1.15.51L86.33,96.65H83.46V95.38h2.07ZM83.46,96.94H90V98.2H83.46ZM90,96.65H86.64l1.84-4.35h8.2l1.84,4.35H95.13V95.38h1.48l-.75-1.8H89.32l-.78,1.8H90Zm2.55-14,4,9.39H88.61Zm-2.07,8.14h4.16l-2.09-4.92Zm11.18,5.89H98.81L92.7,82.23l1.18-.51,5.77,13.66h2Zm-6.56.29h6.56V98.2H95.13Z"/><path class="cls-8" d="M105.8,91.49h1.27v6.39H105.8Zm8.78-9.91h1.28V84.9a6,6,0,0,0-4.73-2.38c-2.34,0-3.87,1.46-3.87,3.34,0,2.24,2,3.14,4.33,3.93,2,.71,4.64,1.45,4.64,3.81,0,1.69-1.27,3.05-3.63,3.05a6.3,6.3,0,0,1-5.23-2.8V91.49h1.25v2a5.09,5.09,0,0,0,4,1.93c1.65,0,2.38-.78,2.38-1.78,0-1.34-1.78-1.9-3.81-2.61-2.34-.82-5.18-2.07-5.18-5.13,0-2.61,2.11-4.6,5.14-4.6a7.3,7.3,0,0,1,3.45.88Zm0,6.4v-2.2a4.29,4.29,0,0,0-3.45-1.69c-1.53,0-2.32.75-2.32,1.77s1.13,1.7,3.3,2.45c2,.71,5.69,1.76,5.69,5.29,0,2.51-2,4.6-5.2,4.6a7.88,7.88,0,0,1-4-1.11v.79h-1.25V94.35a6.67,6.67,0,0,0,5.23,2.59c2.48,0,3.92-1.52,3.92-3.34,0-2.57-2.8-3.39-4.84-4.1-2.31-.77-4.12-1.61-4.12-3.64,0-1.75,1.36-3,3.57-3a5.52,5.52,0,0,1,4.73,2.61V88Zm1.57-6.4h1.25V88h-1.25Z"/></g></g></svg>